<svg width="36" height="35" viewBox="0 0 36 35" fill="none" xmlns="http://www.w3.org/2000/svg">
<rect x="0.25" width="35" height="35" rx="17.5" fill="#1EB036" fill-opacity="0.14"/>
<path d="M25.6895 17.875L22.0273 21.5371C20.5625 23.002 18.1895 23.002 16.7539 21.5371C15.3477 20.1309 15.2598 17.9043 16.5488 16.4395L16.7246 16.2637C16.8711 16.0586 17.1934 16.0293 17.3691 16.2051C17.5742 16.3809 17.6035 16.6738 17.4277 16.8789L17.2812 17.0547C16.3145 18.168 16.373 19.8379 17.3984 20.8633C18.5117 21.9766 20.2695 21.9766 21.3828 20.8633L25.0156 17.2305C26.1289 16.1172 26.1289 14.3594 25.0156 13.2461C23.9316 12.1621 22.1445 12.1621 21.0605 13.2461L20.3867 13.9199C20.2109 14.0957 19.918 14.0957 19.7129 13.9199C19.5371 13.7148 19.5371 13.4219 19.7129 13.2461L20.3867 12.5723C21.8516 11.1074 24.2246 11.1074 25.6895 12.5723C27.1543 14.0371 27.1543 16.4102 25.6895 17.875ZM9.78125 17.875L13.4434 14.2422C14.9082 12.7773 17.252 12.7773 18.7461 14.2422C20.123 15.6191 20.2109 17.8457 18.9219 19.3398L18.7461 19.5156C18.5996 19.7207 18.3066 19.75 18.1016 19.5742C17.8965 19.3984 17.8672 19.1055 18.043 18.9004L18.2188 18.7246C19.1562 17.6113 19.0977 15.9414 18.0723 14.916C16.959 13.8027 15.2012 13.8027 14.0879 14.916L10.4551 18.5488C9.3418 19.6621 9.3418 21.4199 10.4551 22.5332C11.5391 23.6172 13.3262 23.6172 14.4102 22.5332L15.084 21.8594C15.2598 21.6836 15.5527 21.6836 15.7578 21.8594C15.9336 22.0352 15.9336 22.3574 15.7578 22.5332L15.084 23.1777C13.6191 24.6426 11.2461 24.6426 9.78125 23.1777C8.31641 21.7129 8.31641 19.3398 9.78125 17.875Z" fill="#C9CED6"/>
</svg>
