<svg width="35" height="35" viewBox="0 0 35 35" fill="none" xmlns="http://www.w3.org/2000/svg">
<rect width="35" height="35" rx="17.5" fill="#1C283F" fill-opacity="0.69"/>
<path d="M23.125 21.625H17.5C16.4453 21.625 15.625 20.8047 15.625 19.75V12.25C15.625 11.2246 16.4453 10.375 17.5 10.375H21.6016C21.9531 10.375 22.334 10.5508 22.5977 10.8145L24.5605 12.7773C24.8242 13.041 25 13.4219 25 13.7734V19.75C25 20.8047 24.1504 21.625 23.125 21.625ZM11.875 14.125H14.6875V15.5312H11.875C11.6113 15.5312 11.4062 15.7656 11.4062 16V23.5C11.4062 23.7637 11.6113 23.9688 11.875 23.9688H17.5C17.7344 23.9688 17.9688 23.7637 17.9688 23.5V22.5625H19.375V23.5C19.375 24.5547 18.5254 25.375 17.5 25.375H11.875C10.8203 25.375 10 24.5547 10 23.5V16C10 14.9746 10.8203 14.125 11.875 14.125Z" fill="#C9CED6"/>
</svg>
