<svg width="893" height="68" viewBox="0 0 893 68" fill="none" xmlns="http://www.w3.org/2000/svg">
<g filter="url(#filter0_d_118_219)">
<path d="M29.4302 16.446C29.2882 14.8835 28.6561 13.669 27.5339 12.8026C26.426 11.9219 24.8422 11.4815 22.7825 11.4815C21.4189 11.4815 20.2825 11.6591 19.3734 12.0142C18.4643 12.3693 17.7825 12.8594 17.3279 13.4844C16.8734 14.0952 16.639 14.7983 16.6248 15.5938C16.5964 16.2472 16.7243 16.8224 17.0083 17.3196C17.3066 17.8168 17.7328 18.2571 18.2868 18.6406C18.8549 19.0099 19.5368 19.3366 20.3322 19.6207C21.1277 19.9048 22.0225 20.1534 23.0169 20.3665L26.7669 21.2188C28.926 21.6875 30.8294 22.3125 32.4771 23.0938C34.139 23.875 35.5311 24.8054 36.6532 25.8849C37.7896 26.9645 38.649 28.2074 39.2314 29.6136C39.8137 31.0199 40.112 32.5966 40.1262 34.3438C40.112 37.0994 39.416 39.4645 38.0382 41.4389C36.6603 43.4134 34.6788 44.9261 32.0936 45.9773C29.5226 47.0284 26.4189 47.554 22.7825 47.554C19.1319 47.554 15.9501 47.0071 13.237 45.9134C10.524 44.8196 8.4146 43.1577 6.90891 40.9276C5.40323 38.6974 4.62908 35.8778 4.58647 32.4688H14.6859C14.7711 33.875 15.1476 35.0469 15.8152 35.9844C16.4828 36.9219 17.399 37.6321 18.5637 38.1151C19.7427 38.598 21.1064 38.8395 22.6547 38.8395C24.0751 38.8395 25.2825 38.6477 26.2768 38.2642C27.2853 37.8807 28.0595 37.348 28.5993 36.6662C29.139 35.9844 29.416 35.2031 29.4302 34.3224C29.416 33.4986 29.1603 32.7955 28.6632 32.2131C28.166 31.6165 27.399 31.1051 26.362 30.679C25.3393 30.2386 24.0325 29.8338 22.4416 29.4645L17.8819 28.3991C14.1035 27.5327 11.1277 26.1335 8.95437 24.2017C6.78107 22.2557 5.70153 19.6278 5.71573 16.3182C5.70153 13.6193 6.42596 11.2543 7.88903 9.22301C9.3521 7.19176 11.3762 5.60795 13.9615 4.47159C16.5467 3.33523 19.4941 2.76704 22.8038 2.76704C26.1845 2.76704 29.1177 3.34233 31.6035 4.4929C34.1035 5.62926 36.0424 7.22727 37.4203 9.28693C38.7981 11.3466 39.5012 13.733 39.5297 16.446H29.4302ZM55.872 28.3352V47H45.4529V3.36364H55.5311V20.2812H55.8933C56.6319 18.2642 57.8393 16.6875 59.5154 15.5511C61.2058 14.4148 63.2726 13.8466 65.7157 13.8466C68.0169 13.8466 70.0197 14.358 71.7243 15.3807C73.4288 16.3892 74.7498 17.8168 75.6873 19.6634C76.639 21.5099 77.1078 23.669 77.0936 26.1406V47H66.6745V28.1861C66.6887 26.3679 66.2342 24.9474 65.3109 23.9247C64.3876 22.902 63.0879 22.3906 61.4118 22.3906C60.318 22.3906 59.3521 22.6321 58.514 23.1151C57.6902 23.5838 57.0439 24.2585 56.5751 25.1392C56.1206 26.0199 55.8862 27.0852 55.872 28.3352ZM98.8745 47.6179C95.437 47.6179 92.4824 46.9148 90.0108 45.5085C87.5534 44.0881 85.6571 42.1136 84.3219 39.5852C83.0009 37.0426 82.3404 34.0952 82.3404 30.7429C82.3404 27.3764 83.0009 24.429 84.3219 21.9006C85.6571 19.358 87.5534 17.3835 90.0108 15.9773C92.4824 14.5568 95.437 13.8466 98.8745 13.8466C102.312 13.8466 105.259 14.5568 107.717 15.9773C110.188 17.3835 112.085 19.358 113.406 21.9006C114.741 24.429 115.409 27.3764 115.409 30.7429C115.409 34.0952 114.741 37.0426 113.406 39.5852C112.085 42.1136 110.188 44.0881 107.717 45.5085C105.259 46.9148 102.312 47.6179 98.8745 47.6179ZM98.9384 39.7557C100.188 39.7557 101.247 39.3722 102.113 38.6051C102.98 37.8381 103.64 36.7727 104.095 35.4091C104.563 34.0455 104.798 32.4687 104.798 30.679C104.798 28.8608 104.563 27.2699 104.095 25.9062C103.64 24.5426 102.98 23.4773 102.113 22.7102C101.247 21.9432 100.188 21.5597 98.9384 21.5597C97.6458 21.5597 96.552 21.9432 95.6571 22.7102C94.7765 23.4773 94.1017 24.5426 93.633 25.9062C93.1784 27.2699 92.9512 28.8608 92.9512 30.679C92.9512 32.4687 93.1784 34.0455 93.633 35.4091C94.1017 36.7727 94.7765 37.8381 95.6571 38.6051C96.552 39.3722 97.6458 39.7557 98.9384 39.7557ZM120.746 47V14.2727H130.867V20.2386H131.208C131.804 18.0795 132.777 16.4744 134.127 15.4233C135.476 14.358 137.046 13.8253 138.835 13.8253C139.318 13.8253 139.816 13.8608 140.327 13.9318C140.838 13.9886 141.314 14.081 141.754 14.2088V23.2642C141.257 23.0937 140.604 22.9588 139.794 22.8594C138.999 22.7599 138.289 22.7102 137.664 22.7102C136.428 22.7102 135.313 22.9872 134.318 23.5412C133.338 24.081 132.564 24.8409 131.996 25.821C131.442 26.7869 131.165 27.9233 131.165 29.2301V47H120.746ZM165.996 14.2727V21.9432H145.35V14.2727H165.996ZM149.675 6.43182H160.094V36.7088C160.094 37.348 160.194 37.8665 160.393 38.2642C160.606 38.6477 160.911 38.9247 161.309 39.0952C161.706 39.2514 162.182 39.3295 162.736 39.3295C163.134 39.3295 163.553 39.294 163.993 39.223C164.448 39.1378 164.789 39.0668 165.016 39.0099L166.593 46.5312C166.096 46.6733 165.393 46.8509 164.483 47.0639C163.589 47.277 162.516 47.4119 161.266 47.4688C158.823 47.5824 156.728 47.2983 154.981 46.6165C153.248 45.9205 151.92 44.8409 150.996 43.3778C150.087 41.9148 149.647 40.0753 149.675 37.8594V6.43182ZM186.259 47.6179C182.836 47.6179 179.881 46.9432 177.395 45.5938C174.924 44.2301 173.02 42.2912 171.685 39.777C170.364 37.2486 169.704 34.2443 169.704 30.7642C169.704 27.3835 170.371 24.429 171.706 21.9006C173.042 19.358 174.924 17.3835 177.353 15.9773C179.782 14.5568 182.644 13.8466 185.939 13.8466C188.269 13.8466 190.4 14.2088 192.331 14.9332C194.263 15.6577 195.932 16.7301 197.339 18.1506C198.745 19.571 199.839 21.3253 200.62 23.4134C201.401 25.4872 201.792 27.8665 201.792 30.5511V33.1506H173.347V27.0994H192.097C192.083 25.9915 191.82 25.0043 191.309 24.1378C190.797 23.2713 190.094 22.5966 189.199 22.1136C188.319 21.6165 187.303 21.3679 186.153 21.3679C184.988 21.3679 183.944 21.6307 183.02 22.1562C182.097 22.6676 181.366 23.3707 180.826 24.2656C180.286 25.1463 180.002 26.1477 179.974 27.2699V33.4276C179.974 34.7628 180.236 35.9347 180.762 36.9432C181.287 37.9375 182.033 38.7116 182.999 39.2656C183.965 39.8196 185.116 40.0966 186.451 40.0966C187.374 40.0966 188.212 39.9687 188.965 39.7131C189.718 39.4574 190.364 39.081 190.904 38.5838C191.444 38.0866 191.849 37.4759 192.118 36.7514L201.685 37.0284C201.287 39.1733 200.414 41.0412 199.064 42.6321C197.729 44.2088 195.975 45.4375 193.802 46.3182C191.628 47.1847 189.114 47.6179 186.259 47.6179ZM217.532 28.3352V47H207.113V14.2727H217.021V20.2812H217.383C218.107 18.2784 219.343 16.7088 221.09 15.5724C222.838 14.4219 224.919 13.8466 227.333 13.8466C229.634 13.8466 231.63 14.3651 233.32 15.402C235.025 16.4247 236.346 17.8594 237.284 19.706C238.235 21.5384 238.704 23.6832 238.69 26.1406V47H228.271V28.1861C228.285 26.3679 227.823 24.9474 226.886 23.9247C225.963 22.902 224.677 22.3906 223.029 22.3906C221.936 22.3906 220.97 22.6321 220.132 23.1151C219.308 23.5838 218.669 24.2585 218.214 25.1392C217.774 26.0199 217.546 27.0852 217.532 28.3352ZM255.858 3.36364H267.64L276.866 21.6236H277.25L286.476 3.36364H298.258L282.3 32.4261V47H271.817V32.4261L255.858 3.36364ZM310.398 47.6179C306.96 47.6179 304.006 46.9148 301.534 45.5085C299.077 44.0881 297.181 42.1136 295.845 39.5852C294.524 37.0426 293.864 34.0952 293.864 30.7429C293.864 27.3764 294.524 24.429 295.845 21.9006C297.181 19.358 299.077 17.3835 301.534 15.9773C304.006 14.5568 306.96 13.8466 310.398 13.8466C313.835 13.8466 316.783 14.5568 319.24 15.9773C321.712 17.3835 323.608 19.358 324.929 21.9006C326.264 24.429 326.932 27.3764 326.932 30.7429C326.932 34.0952 326.264 37.0426 324.929 39.5852C323.608 42.1136 321.712 44.0881 319.24 45.5085C316.783 46.9148 313.835 47.6179 310.398 47.6179ZM310.462 39.7557C311.712 39.7557 312.77 39.3722 313.637 38.6051C314.503 37.8381 315.164 36.7727 315.618 35.4091C316.087 34.0455 316.321 32.4687 316.321 30.679C316.321 28.8608 316.087 27.2699 315.618 25.9062C315.164 24.5426 314.503 23.4773 313.637 22.7102C312.77 21.9432 311.712 21.5597 310.462 21.5597C309.169 21.5597 308.075 21.9432 307.181 22.7102C306.3 23.4773 305.625 24.5426 305.156 25.9062C304.702 27.2699 304.475 28.8608 304.475 30.679C304.475 32.4687 304.702 34.0455 305.156 35.4091C305.625 36.7727 306.3 37.8381 307.181 38.6051C308.075 39.3722 309.169 39.7557 310.462 39.7557ZM353.384 32.8736V14.2727H363.782V47H353.853V40.9062H353.512C352.788 42.9091 351.552 44.5 349.805 45.679C348.072 46.8437 345.977 47.4261 343.519 47.4261C341.289 47.4261 339.329 46.9148 337.639 45.892C335.948 44.8693 334.634 43.4418 333.697 41.6094C332.759 39.7628 332.284 37.6037 332.269 35.1321V14.2727H342.688V33.0866C342.703 34.8622 343.171 36.2614 344.095 37.2841C345.018 38.3068 346.275 38.8182 347.866 38.8182C348.903 38.8182 349.833 38.5909 350.657 38.1364C351.495 37.6676 352.156 36.9929 352.639 36.1122C353.136 35.2173 353.384 34.1378 353.384 32.8736ZM370.414 47V14.2727H380.535V20.2386H380.876C381.472 18.0795 382.445 16.4744 383.795 15.4233C385.144 14.358 386.714 13.8253 388.503 13.8253C388.986 13.8253 389.483 13.8608 389.995 13.9318C390.506 13.9886 390.982 14.081 391.422 14.2088V23.2642C390.925 23.0937 390.272 22.9588 389.462 22.8594C388.667 22.7599 387.956 22.7102 387.331 22.7102C386.096 22.7102 384.981 22.9872 383.986 23.5412C383.006 24.081 382.232 24.8409 381.664 25.821C381.11 26.7869 380.833 27.9233 380.833 29.2301V47H370.414ZM408.558 47V3.36364H419.105V38.4347H437.259V47H408.558ZM457.996 47.6179C454.558 47.6179 451.604 46.9148 449.132 45.5085C446.675 44.0881 444.778 42.1136 443.443 39.5852C442.122 37.0426 441.461 34.0952 441.461 30.7429C441.461 27.3764 442.122 24.429 443.443 21.9006C444.778 19.358 446.675 17.3835 449.132 15.9773C451.604 14.5568 454.558 13.8466 457.996 13.8466C461.433 13.8466 464.381 14.5568 466.838 15.9773C469.309 17.3835 471.206 19.358 472.527 21.9006C473.862 24.429 474.53 27.3764 474.53 30.7429C474.53 34.0952 473.862 37.0426 472.527 39.5852C471.206 42.1136 469.309 44.0881 466.838 45.5085C464.381 46.9148 461.433 47.6179 457.996 47.6179ZM458.059 39.7557C459.309 39.7557 460.368 39.3722 461.234 38.6051C462.101 37.8381 462.761 36.7727 463.216 35.4091C463.684 34.0455 463.919 32.4687 463.919 30.679C463.919 28.8608 463.684 27.2699 463.216 25.9062C462.761 24.5426 462.101 23.4773 461.234 22.7102C460.368 21.9432 459.309 21.5597 458.059 21.5597C456.767 21.5597 455.673 21.9432 454.778 22.7102C453.898 23.4773 453.223 24.5426 452.754 25.9062C452.3 27.2699 452.072 28.8608 452.072 30.679C452.072 32.4687 452.3 34.0455 452.754 35.4091C453.223 36.7727 453.898 37.8381 454.778 38.6051C455.673 39.3722 456.767 39.7557 458.059 39.7557ZM495.144 47.6179C491.706 47.6179 488.752 46.9148 486.28 45.5085C483.823 44.0881 481.927 42.1136 480.591 39.5852C479.27 37.0426 478.61 34.0952 478.61 30.7429C478.61 27.3764 479.27 24.429 480.591 21.9006C481.927 19.358 483.823 17.3835 486.28 15.9773C488.752 14.5568 491.706 13.8466 495.144 13.8466C498.581 13.8466 501.529 14.5568 503.986 15.9773C506.458 17.3835 508.354 19.358 509.675 21.9006C511.01 24.429 511.678 27.3764 511.678 30.7429C511.678 34.0952 511.01 37.0426 509.675 39.5852C508.354 42.1136 506.458 44.0881 503.986 45.5085C501.529 46.9148 498.581 47.6179 495.144 47.6179ZM495.208 39.7557C496.458 39.7557 497.516 39.3722 498.383 38.6051C499.249 37.8381 499.91 36.7727 500.364 35.4091C500.833 34.0455 501.067 32.4687 501.067 30.679C501.067 28.8608 500.833 27.2699 500.364 25.9062C499.91 24.5426 499.249 23.4773 498.383 22.7102C497.516 21.9432 496.458 21.5597 495.208 21.5597C493.915 21.5597 492.822 21.9432 491.927 22.7102C491.046 23.4773 490.371 24.5426 489.903 25.9062C489.448 27.2699 489.221 28.8608 489.221 30.679C489.221 32.4687 489.448 34.0455 489.903 35.4091C490.371 36.7727 491.046 37.8381 491.927 38.6051C492.822 39.3722 493.915 39.7557 495.208 39.7557ZM532.292 47.6179C528.855 47.6179 525.9 46.9148 523.429 45.5085C520.971 44.0881 519.075 42.1136 517.74 39.5852C516.419 37.0426 515.758 34.0952 515.758 30.7429C515.758 27.3764 516.419 24.429 517.74 21.9006C519.075 19.358 520.971 17.3835 523.429 15.9773C525.9 14.5568 528.855 13.8466 532.292 13.8466C535.73 13.8466 538.677 14.5568 541.135 15.9773C543.606 17.3835 545.503 19.358 546.824 21.9006C548.159 24.429 548.827 27.3764 548.827 30.7429C548.827 34.0952 548.159 37.0426 546.824 39.5852C545.503 42.1136 543.606 44.0881 541.135 45.5085C538.677 46.9148 535.73 47.6179 532.292 47.6179ZM532.356 39.7557C533.606 39.7557 534.665 39.3722 535.531 38.6051C536.398 37.8381 537.058 36.7727 537.513 35.4091C537.981 34.0455 538.216 32.4687 538.216 30.679C538.216 28.8608 537.981 27.2699 537.513 25.9062C537.058 24.5426 536.398 23.4773 535.531 22.7102C534.665 21.9432 533.606 21.5597 532.356 21.5597C531.064 21.5597 529.97 21.9432 529.075 22.7102C528.194 23.4773 527.52 24.5426 527.051 25.9062C526.596 27.2699 526.369 28.8608 526.369 30.679C526.369 32.4687 526.596 34.0455 527.051 35.4091C527.52 36.7727 528.194 37.8381 529.075 38.6051C529.97 39.3722 531.064 39.7557 532.356 39.7557ZM569.441 47.6179C566.003 47.6179 563.049 46.9148 560.577 45.5085C558.12 44.0881 556.224 42.1136 554.888 39.5852C553.567 37.0426 552.907 34.0952 552.907 30.7429C552.907 27.3764 553.567 24.429 554.888 21.9006C556.224 19.358 558.12 17.3835 560.577 15.9773C563.049 14.5568 566.003 13.8466 569.441 13.8466C572.878 13.8466 575.826 14.5568 578.283 15.9773C580.755 17.3835 582.651 19.358 583.972 21.9006C585.307 24.429 585.975 27.3764 585.975 30.7429C585.975 34.0952 585.307 37.0426 583.972 39.5852C582.651 42.1136 580.755 44.0881 578.283 45.5085C575.826 46.9148 572.878 47.6179 569.441 47.6179ZM569.505 39.7557C570.755 39.7557 571.813 39.3722 572.68 38.6051C573.546 37.8381 574.206 36.7727 574.661 35.4091C575.13 34.0455 575.364 32.4687 575.364 30.679C575.364 28.8608 575.13 27.2699 574.661 25.9062C574.206 24.5426 573.546 23.4773 572.68 22.7102C571.813 21.9432 570.755 21.5597 569.505 21.5597C568.212 21.5597 567.118 21.9432 566.224 22.7102C565.343 23.4773 564.668 24.5426 564.199 25.9062C563.745 27.2699 563.518 28.8608 563.518 30.679C563.518 32.4687 563.745 34.0455 564.199 35.4091C564.668 36.7727 565.343 37.8381 566.224 38.6051C567.118 39.3722 568.212 39.7557 569.505 39.7557ZM601.731 28.3352V47H591.312V14.2727H601.22V20.2812H601.582C602.307 18.2784 603.542 16.7088 605.29 15.5724C607.037 14.4219 609.118 13.8466 611.532 13.8466C613.834 13.8466 615.829 14.3651 617.52 15.402C619.224 16.4247 620.545 17.8594 621.483 19.706C622.434 21.5384 622.903 23.6832 622.889 26.1406V47H612.47V28.1861C612.484 26.3679 612.023 24.9474 611.085 23.9247C610.162 22.902 608.876 22.3906 607.229 22.3906C606.135 22.3906 605.169 22.6321 604.331 23.1151C603.507 23.5838 602.868 24.2585 602.413 25.1392C601.973 26.0199 601.746 27.0852 601.731 28.3352ZM644.595 59.9545C641.485 59.9545 638.821 59.5213 636.605 58.6548C634.389 57.7884 632.649 56.6023 631.385 55.0966C630.121 53.5909 629.361 51.8864 629.105 49.983L638.97 49.429C639.155 50.0966 639.496 50.679 639.993 51.1761C640.504 51.6733 641.165 52.0568 641.975 52.3267C642.798 52.5966 643.764 52.7315 644.872 52.7315C646.619 52.7315 648.061 52.3054 649.198 51.4531C650.348 50.6151 650.923 49.1449 650.923 47.0426V41.2898H650.561C650.149 42.2983 649.524 43.2003 648.686 43.9957C647.848 44.7912 646.804 45.4162 645.554 45.8707C644.318 46.3253 642.898 46.5526 641.293 46.5526C638.906 46.5526 636.719 45.9986 634.73 44.8906C632.756 43.7685 631.172 42.0355 629.979 39.6918C628.8 37.3338 628.21 34.3011 628.21 30.5938C628.21 26.7727 628.821 23.6264 630.043 21.1548C631.264 18.669 632.862 16.8295 634.837 15.6364C636.825 14.4432 638.963 13.8466 641.25 13.8466C642.969 13.8466 644.439 14.1449 645.661 14.7415C646.896 15.3239 647.912 16.0767 648.708 17C649.503 17.9233 650.107 18.8821 650.519 19.8764H650.817V14.2727H661.193V47.1278C661.193 49.8977 660.497 52.2344 659.105 54.1378C657.713 56.0412 655.767 57.483 653.267 58.4631C650.767 59.4574 647.877 59.9545 644.595 59.9545ZM644.915 38.9673C646.179 38.9673 647.259 38.6335 648.154 37.9659C649.048 37.2983 649.737 36.3395 650.22 35.0895C650.703 33.8395 650.945 32.3409 650.945 30.5938C650.945 28.8182 650.703 27.2912 650.22 26.0128C649.752 24.7202 649.063 23.7259 648.154 23.0298C647.259 22.3338 646.179 21.9858 644.915 21.9858C643.622 21.9858 642.529 22.3409 641.634 23.0511C640.739 23.7614 640.057 24.7628 639.588 26.0554C639.134 27.3338 638.906 28.8466 638.906 30.5938C638.906 32.3409 639.141 33.8395 639.61 35.0895C640.078 36.3395 640.753 37.2983 641.634 37.9659C642.529 38.6335 643.622 38.9673 644.915 38.9673ZM680.726 47V3.36364H691.273V38.4347H709.427V47H680.726ZM714.887 47V14.2727H725.306V47H714.887ZM720.107 10.4588C718.644 10.4588 717.387 9.97585 716.335 9.00994C715.284 8.02983 714.759 6.85085 714.759 5.47301C714.759 4.10937 715.284 2.9446 716.335 1.97869C717.387 0.998578 718.644 0.50852 720.107 0.50852C721.584 0.50852 722.841 0.998578 723.878 1.97869C724.929 2.9446 725.455 4.10937 725.455 5.47301C725.455 6.85085 724.929 8.02983 723.878 9.00994C722.841 9.97585 721.584 10.4588 720.107 10.4588ZM742.356 28.3352V47H731.937V14.2727H741.845V20.2812H742.207C742.932 18.2784 744.167 16.7088 745.915 15.5724C747.662 14.4219 749.743 13.8466 752.157 13.8466C754.459 13.8466 756.454 14.3651 758.145 15.402C759.849 16.4247 761.17 17.8594 762.108 19.706C763.059 21.5384 763.528 23.6832 763.514 26.1406V47H753.095V28.1861C753.109 26.3679 752.648 24.9474 751.71 23.9247C750.787 22.902 749.501 22.3906 747.854 22.3906C746.76 22.3906 745.794 22.6321 744.956 23.1151C744.132 23.5838 743.493 24.2585 743.038 25.1392C742.598 26.0199 742.371 27.0852 742.356 28.3352ZM779.361 38.4134L779.404 25.9915H780.852L790.057 14.2727H801.861L788.182 31.0625H785.433L779.361 38.4134ZM769.965 47V3.36364H780.384V47H769.965ZM790.291 47L781.726 33.4062L788.587 26.0128L802.33 47H790.291ZM834.162 24.2656L824.595 24.5213C824.496 23.8395 824.226 23.2358 823.786 22.7102C823.345 22.1705 822.77 21.7514 822.06 21.4531C821.364 21.1406 820.554 20.9844 819.631 20.9844C818.423 20.9844 817.394 21.2259 816.541 21.7088C815.703 22.1918 815.291 22.8452 815.306 23.669C815.291 24.3082 815.547 24.8622 816.073 25.331C816.612 25.7997 817.571 26.1761 818.949 26.4602L825.256 27.6534C828.523 28.2784 830.952 29.3153 832.543 30.7642C834.148 32.2131 834.958 34.1307 834.972 36.517C834.958 38.7614 834.29 40.7145 832.969 42.3764C831.662 44.0384 829.872 45.331 827.6 46.2543C825.327 47.1634 822.727 47.6179 819.801 47.6179C815.128 47.6179 811.442 46.6591 808.743 44.7415C806.058 42.8097 804.524 40.2244 804.141 36.9858L814.432 36.7301C814.659 37.9233 815.249 38.8324 816.2 39.4574C817.152 40.0824 818.367 40.3949 819.844 40.3949C821.179 40.3949 822.266 40.1463 823.104 39.6491C823.942 39.152 824.368 38.4915 824.382 37.6676C824.368 36.929 824.041 36.3395 823.402 35.8991C822.763 35.4446 821.762 35.0895 820.398 34.8338L814.688 33.7472C811.406 33.1506 808.963 32.0497 807.358 30.4446C805.753 28.8253 804.958 26.7656 804.972 24.2656C804.958 22.0781 805.54 20.2102 806.719 18.6619C807.898 17.0994 809.574 15.9063 811.747 15.0824C813.921 14.2585 816.485 13.8466 819.439 13.8466C823.871 13.8466 827.365 14.777 829.922 16.6378C832.479 18.4844 833.892 21.027 834.162 24.2656ZM858.851 47.6179C857.317 47.6179 856.003 47.0781 854.91 45.9986C853.83 44.919 853.297 43.6122 853.312 42.0781C853.297 40.5724 853.83 39.2869 854.91 38.2216C856.003 37.142 857.317 36.6023 858.851 36.6023C860.3 36.6023 861.579 37.142 862.687 38.2216C863.809 39.2869 864.377 40.5724 864.391 42.0781C864.377 43.1009 864.107 44.0312 863.581 44.8693C863.07 45.7074 862.395 46.375 861.557 46.8722C860.733 47.3693 859.831 47.6179 858.851 47.6179ZM858.851 25.1605C857.317 25.1605 856.003 24.6278 854.91 23.5625C853.83 22.483 853.297 21.169 853.312 19.6207C853.297 18.1151 853.83 16.8295 854.91 15.7642C856.003 14.6847 857.317 14.1449 858.851 14.1449C860.3 14.1449 861.579 14.6847 862.687 15.7642C863.809 16.8295 864.377 18.1151 864.391 19.6207C864.377 20.6435 864.107 21.5739 863.581 22.4119C863.07 23.25 862.395 23.9176 861.557 24.4148C860.733 24.9119 859.831 25.1605 858.851 25.1605ZM888.084 29.8267C888.084 35.0824 887.374 39.9261 885.954 44.358C884.533 48.7756 882.317 52.8807 879.306 56.6733H869.206C870.357 55.267 871.415 53.5554 872.381 51.5384C873.361 49.5213 874.206 47.3125 874.917 44.9119C875.641 42.5114 876.202 40.0256 876.6 37.4545C877.012 34.8835 877.218 32.3409 877.218 29.8267C877.218 26.4602 876.87 23.0724 876.174 19.6634C875.478 16.2401 874.526 13.0724 873.319 10.1605C872.111 7.23437 870.741 4.8338 869.206 2.9588H879.306C882.317 6.75142 884.533 10.8636 885.954 15.2955C887.374 19.7131 888.084 24.5568 888.084 29.8267Z" fill="url(#paint0_linear_118_219)"/>
</g>
<defs>
<filter id="filter0_d_118_219" x="0.586426" y="0.508545" width="891.498" height="67.446" filterUnits="userSpaceOnUse" color-interpolation-filters="sRGB">
<feFlood flood-opacity="0" result="BackgroundImageFix"/>
<feColorMatrix in="SourceAlpha" type="matrix" values="0 0 0 0 0 0 0 0 0 0 0 0 0 0 0 0 0 0 127 0" result="hardAlpha"/>
<feOffset dy="4"/>
<feGaussianBlur stdDeviation="2"/>
<feComposite in2="hardAlpha" operator="out"/>
<feColorMatrix type="matrix" values="0 0 0 0 0 0 0 0 0 0 0 0 0 0 0 0 0 0 0.25 0"/>
<feBlend mode="normal" in2="BackgroundImageFix" result="effect1_dropShadow_118_219"/>
<feBlend mode="normal" in="SourceGraphic" in2="effect1_dropShadow_118_219" result="shape"/>
</filter>
<linearGradient id="paint0_linear_118_219" x1="2.06764" y1="48.9999" x2="900.283" y2="34.5809" gradientUnits="userSpaceOnUse">
<stop stop-color="#144EE3"/>
<stop offset="0.1875" stop-color="#EB568E"/>
<stop offset="0.640625" stop-color="#A353AA"/>
<stop offset="1" stop-color="#144EE3"/>
</linearGradient>
</defs>
</svg>
