<svg width="36" height="35" viewBox="0 0 36 35" fill="none" xmlns="http://www.w3.org/2000/svg">
<rect x="0.25" width="35" height="35" rx="17.5" fill="#B0901E" fill-opacity="0.19"/>
<path d="M9.10742 10.4922L26.9492 24.5547C27.125 24.7012 27.1836 25.0234 27.0078 25.1992C26.8613 25.4043 26.5684 25.4629 26.3633 25.2871L8.55078 11.2246C8.3457 11.0781 8.28711 10.7559 8.46289 10.5801C8.60938 10.375 8.93164 10.3164 9.10742 10.4922ZM25.6895 17.875L23.5215 20.0723L22.7891 19.4863L25.0156 17.2305C26.1289 16.1172 26.1289 14.3594 25.0156 13.2461C23.9316 12.1621 22.1445 12.1621 21.0605 13.2461L20.3867 13.9199C20.2109 14.0957 19.918 14.0957 19.7129 13.9199C19.5371 13.7148 19.5371 13.4219 19.7129 13.2461L20.3867 12.5723C21.8516 11.1074 24.2246 11.1074 25.6895 12.5723C27.1543 14.0371 27.1543 16.4102 25.6895 17.875ZM20.5039 22.4746C19.2148 22.8555 17.7793 22.5625 16.7539 21.5371C15.9629 20.7461 15.582 19.6914 15.6699 18.6367L16.6367 19.3984C16.7246 19.9551 16.9883 20.4531 17.3984 20.8633C17.9844 21.4492 18.7754 21.7422 19.5371 21.6836L20.5039 22.4746ZM18.0723 14.916V14.8867C17.4863 14.3301 16.6953 14.0371 15.9336 14.0664L14.9668 13.3047C16.2559 12.9238 17.7207 13.2168 18.7168 14.2422C19.5078 15.0332 19.8887 16.0879 19.8301 17.1426L18.834 16.3809C18.7461 15.8242 18.4824 15.3262 18.0723 14.916ZM12.7109 16.293L10.4551 18.5488C9.3418 19.6621 9.3418 21.4199 10.4551 22.5332C11.5391 23.6172 13.3262 23.6172 14.4102 22.5332L15.084 21.8594C15.2598 21.6836 15.5527 21.6836 15.7578 21.8594C15.9336 22.0352 15.9336 22.3574 15.7578 22.5332L15.084 23.1777C13.6191 24.6426 11.2461 24.6426 9.78125 23.1777C8.31641 21.7129 8.31641 19.3398 9.78125 17.875L11.9492 15.707L12.7109 16.293Z" fill="#B0901E"/>
</svg>
