<svg width="116" height="45" viewBox="0 0 116 45" fill="none" xmlns="http://www.w3.org/2000/svg">
<g filter="url(#filter0_d_1_597)">
<mask id="path-1-outside-1_1_597" maskUnits="userSpaceOnUse" x="3" y="-1" width="110" height="39" fill="black">
<rect fill="white" x="3" y="-1" width="110" height="39"/>
<path d="M4.38241 29V2.15376H10.8711V23.7304H22.0396V29H4.38241ZM25.3986 29V8.86532H31.8087V29H25.3986ZM28.6102 6.51889C27.7101 6.51889 26.9367 6.22177 26.29 5.62752C25.6433 5.02452 25.32 4.29918 25.32 3.4515C25.32 2.61256 25.6433 1.89596 26.29 1.3017C26.9367 0.698712 27.7101 0.397216 28.6102 0.397216C29.5191 0.397216 30.2925 0.698712 30.9304 1.3017C31.5771 1.89596 31.9005 2.61256 31.9005 3.4515C31.9005 4.29918 31.5771 5.02452 30.9304 5.62752C30.2925 6.22177 29.5191 6.51889 28.6102 6.51889ZM42.2988 17.5169V29H35.8887V8.86532H41.9842V12.5619H42.207C42.6527 11.3297 43.413 10.3641 44.4879 9.66494C45.5628 8.95708 46.8431 8.60315 48.3287 8.60315C49.7444 8.60315 50.9723 8.92212 52.0122 9.56007C53.0609 10.1893 53.8736 11.0719 54.4504 12.208C55.0359 13.3353 55.3243 14.6549 55.3156 16.1668V29H48.9055V17.4252C48.9142 16.3066 48.6302 15.4327 48.0534 14.8035C47.4854 14.1743 46.6945 13.8597 45.6808 13.8597C45.0079 13.8597 44.4136 14.0082 43.898 14.3054C43.3912 14.5937 42.9979 15.0088 42.7183 15.5507C42.4474 16.0925 42.3075 16.7479 42.2988 17.5169ZM65.065 23.7173L65.0912 16.075H65.9826L71.6455 8.86532H78.9076L70.4919 19.1948H68.8009L65.065 23.7173ZM59.2842 29V2.15376H65.6942V29H59.2842ZM71.7897 29L66.5201 20.6368L70.741 16.0881L79.196 29H71.7897ZM87.6117 2.15376V29H81.2016V2.15376H87.6117ZM95.6111 36.5505C94.8421 36.5505 94.1168 36.4893 93.4351 36.367C92.7535 36.2534 92.168 36.1004 91.6786 35.9082L93.0943 31.2547C93.7235 31.4644 94.2915 31.5867 94.7984 31.6217C95.314 31.6567 95.7553 31.5736 96.1224 31.3726C96.4981 31.1804 96.7865 30.8352 96.9875 30.3371L97.2366 29.7341L90.0793 8.86532H96.7909L100.501 23.2323H100.71L104.472 8.86532H111.223L103.634 30.927C103.267 32.0281 102.747 32.9981 102.074 33.837C101.409 34.6847 100.549 35.3489 99.4913 35.8295C98.4426 36.3102 97.1492 36.5505 95.6111 36.5505Z"/>
</mask>
<path d="M4.38241 29V2.15376H10.8711V23.7304H22.0396V29H4.38241ZM25.3986 29V8.86532H31.8087V29H25.3986ZM28.6102 6.51889C27.7101 6.51889 26.9367 6.22177 26.29 5.62752C25.6433 5.02452 25.32 4.29918 25.32 3.4515C25.32 2.61256 25.6433 1.89596 26.29 1.3017C26.9367 0.698712 27.7101 0.397216 28.6102 0.397216C29.5191 0.397216 30.2925 0.698712 30.9304 1.3017C31.5771 1.89596 31.9005 2.61256 31.9005 3.4515C31.9005 4.29918 31.5771 5.02452 30.9304 5.62752C30.2925 6.22177 29.5191 6.51889 28.6102 6.51889ZM42.2988 17.5169V29H35.8887V8.86532H41.9842V12.5619H42.207C42.6527 11.3297 43.413 10.3641 44.4879 9.66494C45.5628 8.95708 46.8431 8.60315 48.3287 8.60315C49.7444 8.60315 50.9723 8.92212 52.0122 9.56007C53.0609 10.1893 53.8736 11.0719 54.4504 12.208C55.0359 13.3353 55.3243 14.6549 55.3156 16.1668V29H48.9055V17.4252C48.9142 16.3066 48.6302 15.4327 48.0534 14.8035C47.4854 14.1743 46.6945 13.8597 45.6808 13.8597C45.0079 13.8597 44.4136 14.0082 43.898 14.3054C43.3912 14.5937 42.9979 15.0088 42.7183 15.5507C42.4474 16.0925 42.3075 16.7479 42.2988 17.5169ZM65.065 23.7173L65.0912 16.075H65.9826L71.6455 8.86532H78.9076L70.4919 19.1948H68.8009L65.065 23.7173ZM59.2842 29V2.15376H65.6942V29H59.2842ZM71.7897 29L66.5201 20.6368L70.741 16.0881L79.196 29H71.7897ZM87.6117 2.15376V29H81.2016V2.15376H87.6117ZM95.6111 36.5505C94.8421 36.5505 94.1168 36.4893 93.4351 36.367C92.7535 36.2534 92.168 36.1004 91.6786 35.9082L93.0943 31.2547C93.7235 31.4644 94.2915 31.5867 94.7984 31.6217C95.314 31.6567 95.7553 31.5736 96.1224 31.3726C96.4981 31.1804 96.7865 30.8352 96.9875 30.3371L97.2366 29.7341L90.0793 8.86532H96.7909L100.501 23.2323H100.71L104.472 8.86532H111.223L103.634 30.927C103.267 32.0281 102.747 32.9981 102.074 33.837C101.409 34.6847 100.549 35.3489 99.4913 35.8295C98.4426 36.3102 97.1492 36.5505 95.6111 36.5505Z" fill="url(#paint0_radial_1_597)"/>
<path d="M4.38241 29H3.38241V30H4.38241V29ZM4.38241 2.15376V1.15376H3.38241V2.15376H4.38241ZM10.8711 2.15376H11.8711V1.15376H10.8711V2.15376ZM10.8711 23.7304H9.87113V24.7304H10.8711V23.7304ZM22.0396 23.7304H23.0396V22.7304H22.0396V23.7304ZM22.0396 29V30H23.0396V29H22.0396ZM5.38241 29V2.15376H3.38241V29H5.38241ZM4.38241 3.15376H10.8711V1.15376H4.38241V3.15376ZM9.87113 2.15376V23.7304H11.8711V2.15376H9.87113ZM10.8711 24.7304H22.0396V22.7304H10.8711V24.7304ZM21.0396 23.7304V29H23.0396V23.7304H21.0396ZM22.0396 28H4.38241V30H22.0396V28ZM25.3986 29H24.3986V30H25.3986V29ZM25.3986 8.86532V7.86532H24.3986V8.86532H25.3986ZM31.8087 8.86532H32.8087V7.86532H31.8087V8.86532ZM31.8087 29V30H32.8087V29H31.8087ZM26.29 5.62752L25.608 6.35892L25.6134 6.36384L26.29 5.62752ZM26.29 1.3017L26.9667 2.03805L26.972 2.03309L26.29 1.3017ZM30.9304 1.3017L30.2435 2.02851L30.2538 2.03803L30.9304 1.3017ZM30.9304 5.62752L31.612 6.35924L31.6124 6.3589L30.9304 5.62752ZM26.3986 29V8.86532H24.3986V29H26.3986ZM25.3986 9.86532H31.8087V7.86532H25.3986V9.86532ZM30.8087 8.86532V29H32.8087V8.86532H30.8087ZM31.8087 28H25.3986V30H31.8087V28ZM28.6102 5.51889C27.9538 5.51889 27.4238 5.31126 26.9666 4.89119L25.6134 6.36384C26.4496 7.13228 27.4664 7.51889 28.6102 7.51889V5.51889ZM26.972 4.89613C26.5183 4.4731 26.32 4.00865 26.32 3.4515H24.32C24.32 4.58972 24.7684 5.57595 25.6081 6.3589L26.972 4.89613ZM26.32 3.4515C26.32 2.90691 26.5151 2.45293 26.9666 2.03803L25.6134 0.565377C24.7715 1.33898 24.32 2.3182 24.32 3.4515H26.32ZM26.972 2.03309C27.4299 1.60614 27.9582 1.39722 28.6102 1.39722V-0.602784C27.462 -0.602784 26.4435 -0.208714 25.6081 0.570321L26.972 2.03309ZM28.6102 1.39722C29.2736 1.39722 29.7984 1.60769 30.2435 2.02844L31.6174 0.574968C30.7866 -0.210263 29.7646 -0.602784 28.6102 -0.602784V1.39722ZM30.2538 2.03803C30.7053 2.45293 30.9005 2.90691 30.9005 3.4515H32.9005C32.9005 2.3182 32.4489 1.33898 31.6071 0.565377L30.2538 2.03803ZM30.9005 3.4515C30.9005 4.00865 30.7022 4.4731 30.2485 4.89613L31.6124 6.3589C32.4521 5.57595 32.9005 4.58972 32.9005 3.4515H30.9005ZM30.2488 4.89579C29.8045 5.30973 29.278 5.51889 28.6102 5.51889V7.51889C29.7602 7.51889 30.7805 7.13381 31.612 6.35924L30.2488 4.89579ZM42.2988 17.5169L41.2988 17.5056V17.5169H42.2988ZM42.2988 29V30H43.2988V29H42.2988ZM35.8887 29H34.8887V30H35.8887V29ZM35.8887 8.86532V7.86532H34.8887V8.86532H35.8887ZM41.9842 8.86532H42.9842V7.86532H41.9842V8.86532ZM41.9842 12.5619H40.9842V13.5619H41.9842V12.5619ZM42.207 12.5619V13.5619H42.9087L43.1474 12.9021L42.207 12.5619ZM44.4879 9.66494L45.0332 10.5032L45.0379 10.5001L44.4879 9.66494ZM52.0122 9.56007L51.4893 10.4125L51.4977 10.4176L52.0122 9.56007ZM54.4504 12.208L53.5587 12.6607L53.563 12.6689L54.4504 12.208ZM55.3156 16.1668L54.3156 16.161V16.1668H55.3156ZM55.3156 29V30H56.3156V29H55.3156ZM48.9055 29H47.9055V30H48.9055V29ZM48.9055 17.4252L47.9055 17.4174V17.4252H48.9055ZM48.0534 14.8035L47.3111 15.4736L47.3163 15.4792L48.0534 14.8035ZM43.898 14.3054L44.3926 15.1745L44.3973 15.1718L43.898 14.3054ZM42.7183 15.5507L41.8296 15.092L41.8238 15.1034L42.7183 15.5507ZM41.2988 17.5169V29H43.2988V17.5169H41.2988ZM42.2988 28H35.8887V30H42.2988V28ZM36.8887 29V8.86532H34.8887V29H36.8887ZM35.8887 9.86532H41.9842V7.86532H35.8887V9.86532ZM40.9842 8.86532V12.5619H42.9842V8.86532H40.9842ZM41.9842 13.5619H42.207V11.5619H41.9842V13.5619ZM43.1474 12.9021C43.5208 11.8696 44.1449 11.0809 45.0331 10.5032L43.9427 8.82665C42.6811 9.64718 41.7846 10.7898 41.2667 12.2218L43.1474 12.9021ZM45.0379 10.5001C45.9255 9.91561 47.0076 9.60315 48.3287 9.60315V7.60315C46.6785 7.60315 45.2002 7.99854 43.9379 8.82977L45.0379 10.5001ZM48.3287 9.60315C49.59 9.60315 50.6305 9.88565 51.4893 10.4125L52.5351 8.70767C51.314 7.95859 49.8989 7.60315 48.3287 7.60315V9.60315ZM51.4977 10.4176C52.3782 10.9458 53.0634 11.685 53.5587 12.6607L55.3421 11.7553C54.6839 10.4589 53.7436 9.43273 52.5267 8.70258L51.4977 10.4176ZM53.563 12.6689C54.0606 13.6271 54.3236 14.7808 54.3156 16.161L56.3155 16.1725C56.325 14.5291 56.0112 13.0435 55.3378 11.7471L53.563 12.6689ZM54.3156 16.1668V29H56.3156V16.1668H54.3156ZM55.3156 28H48.9055V30H55.3156V28ZM49.9055 29V17.4252H47.9055V29H49.9055ZM49.9055 17.433C49.9155 16.1423 49.5859 14.9954 48.7906 14.1278L47.3163 15.4792C47.6745 15.87 47.9129 16.4709 47.9055 17.4174L49.9055 17.433ZM48.7957 14.1334C48.0011 13.2531 46.9171 12.8597 45.6808 12.8597V14.8597C46.4719 14.8597 46.9697 15.0954 47.3112 15.4736L48.7957 14.1334ZM45.6808 12.8597C44.856 12.8597 44.0852 13.0433 43.3987 13.4389L44.3973 15.1718C44.7421 14.9731 45.1598 14.8597 45.6808 14.8597V12.8597ZM43.4035 13.4362C42.7204 13.8249 42.1939 14.3863 41.8297 15.092L43.6069 16.0093C43.802 15.6313 44.062 15.3626 44.3926 15.1745L43.4035 13.4362ZM41.8238 15.1034C41.4695 15.8121 41.3089 16.6247 41.2989 17.5056L43.2987 17.5283C43.3062 16.8711 43.4252 16.3728 43.6127 15.9979L41.8238 15.1034ZM65.065 23.7173L64.065 23.7138L64.0554 26.5095L65.836 24.3541L65.065 23.7173ZM65.0912 16.075V15.075H64.0947L64.0912 16.0716L65.0912 16.075ZM65.9826 16.075V17.075H66.4687L66.769 16.6927L65.9826 16.075ZM71.6455 8.86532V7.86532H71.1594L70.8591 8.24762L71.6455 8.86532ZM78.9076 8.86532L79.6829 9.49695L81.0122 7.86532H78.9076V8.86532ZM70.4919 19.1948V20.1948H70.9671L71.2672 19.8265L70.4919 19.1948ZM68.8009 19.1948V18.1948H68.3299L68.03 18.5579L68.8009 19.1948ZM59.2842 29H58.2842V30H59.2842V29ZM59.2842 2.15376V1.15376H58.2842V2.15376H59.2842ZM65.6942 2.15376H66.6942V1.15376H65.6942V2.15376ZM65.6942 29V30H66.6942V29H65.6942ZM71.7897 29L70.9436 29.5331L71.2378 30H71.7897V29ZM66.5201 20.6368L65.787 19.9566L65.2644 20.5198L65.674 21.1699L66.5201 20.6368ZM70.741 16.0881L71.5776 15.5403L70.8774 14.471L70.008 15.4079L70.741 16.0881ZM79.196 29V30H81.0461L80.0326 28.4522L79.196 29ZM66.065 23.7207L66.0912 16.0784L64.0912 16.0716L64.065 23.7138L66.065 23.7207ZM65.0912 17.075H65.9826V15.075H65.0912V17.075ZM66.769 16.6927L72.4319 9.48301L70.8591 8.24762L65.1962 15.4573L66.769 16.6927ZM71.6455 9.86532H78.9076V7.86532H71.6455V9.86532ZM78.1323 8.23369L69.7167 18.5632L71.2672 19.8265L79.6829 9.49695L78.1323 8.23369ZM70.4919 18.1948H68.8009V20.1948H70.4919V18.1948ZM68.03 18.5579L64.2941 23.0804L65.836 24.3541L69.5719 19.8317L68.03 18.5579ZM60.2842 29V2.15376H58.2842V29H60.2842ZM59.2842 3.15376H65.6942V1.15376H59.2842V3.15376ZM64.6942 2.15376V29H66.6942V2.15376H64.6942ZM65.6942 28H59.2842V30H65.6942V28ZM72.6357 28.4669L67.3661 20.1037L65.674 21.1699L70.9436 29.5331L72.6357 28.4669ZM67.2531 21.317L71.474 16.7683L70.008 15.4079L65.787 19.9566L67.2531 21.317ZM69.9044 16.6359L78.3594 29.5478L80.0326 28.4522L71.5776 15.5403L69.9044 16.6359ZM79.196 28H71.7897V30H79.196V28ZM87.6117 2.15376H88.6117V1.15376H87.6117V2.15376ZM87.6117 29V30H88.6117V29H87.6117ZM81.2016 29H80.2016V30H81.2016V29ZM81.2016 2.15376V1.15376H80.2016V2.15376H81.2016ZM86.6117 2.15376V29H88.6117V2.15376H86.6117ZM87.6117 28H81.2016V30H87.6117V28ZM82.2016 29V2.15376H80.2016V29H82.2016ZM81.2016 3.15376H87.6117V1.15376H81.2016V3.15376ZM93.4351 36.367L93.6118 35.3826L93.5995 35.3806L93.4351 36.367ZM91.6786 35.9082L90.7219 35.6171L90.4529 36.5011L91.3129 36.8389L91.6786 35.9082ZM93.0943 31.2547L93.4105 30.306L92.4364 29.9813L92.1376 30.9636L93.0943 31.2547ZM94.7984 31.6217L94.7296 32.6193L94.7308 32.6194L94.7984 31.6217ZM96.1224 31.3726L95.6669 30.4824L95.6544 30.4888L95.6421 30.4955L96.1224 31.3726ZM96.9875 30.3371L96.0632 29.9553L96.0602 29.9629L96.9875 30.3371ZM97.2366 29.7341L98.1609 30.1158L98.305 29.7668L98.1825 29.4097L97.2366 29.7341ZM90.0793 8.86532V7.86532H88.6792L89.1334 9.18973L90.0793 8.86532ZM96.7909 8.86532L97.7591 8.61531L97.5655 7.86532H96.7909V8.86532ZM100.501 23.2323L99.5324 23.4823L99.726 24.2323H100.501V23.2323ZM100.71 23.2323V24.2323H101.482L101.678 23.4856L100.71 23.2323ZM104.472 8.86532V7.86532H103.701L103.505 8.612L104.472 8.86532ZM111.223 8.86532L112.169 9.19063L112.625 7.86532H111.223V8.86532ZM103.634 30.927L102.688 30.6016L102.685 30.6107L103.634 30.927ZM102.074 33.837L101.294 33.2113L101.286 33.2203L102.074 33.837ZM99.4913 35.8295L99.0774 34.9192L99.0746 34.9205L99.4913 35.8295ZM95.6111 35.5505C94.8949 35.5505 94.2291 35.4935 93.6118 35.3827L93.2585 37.3513C94.0044 37.4851 94.7893 37.5505 95.6111 37.5505V35.5505ZM93.5995 35.3806C92.9666 35.2751 92.4521 35.1377 92.0442 34.9774L91.3129 36.8389C91.8838 37.0632 92.5404 37.2317 93.2707 37.3534L93.5995 35.3806ZM92.6353 36.1992L94.051 31.5457L92.1376 30.9636L90.7219 35.6171L92.6353 36.1992ZM92.7781 32.2033C93.4645 32.4321 94.1174 32.5771 94.7296 32.6193L94.8672 30.6241C94.4656 30.5964 93.9825 30.4967 93.4105 30.306L92.7781 32.2033ZM94.7308 32.6194C95.392 32.6642 96.0328 32.5618 96.6027 32.2497L95.6421 30.4955C95.4779 30.5855 95.236 30.6491 94.866 30.624L94.7308 32.6194ZM96.5778 32.2629C97.2211 31.9338 97.6491 31.37 97.9149 30.7113L96.0602 29.9629C95.924 30.3003 95.7751 30.427 95.6669 30.4824L96.5778 32.2629ZM97.9118 30.7188L98.1609 30.1158L96.3123 29.3523L96.0633 29.9553L97.9118 30.7188ZM98.1825 29.4097L91.0253 8.5409L89.1334 9.18973L96.2907 30.0585L98.1825 29.4097ZM90.0793 9.86532H96.7909V7.86532H90.0793V9.86532ZM95.8227 9.11533L99.5324 23.4823L101.469 22.9822L97.7591 8.61531L95.8227 9.11533ZM100.501 24.2323H100.71V22.2323H100.501V24.2323ZM101.678 23.4856L105.44 9.11864L103.505 8.612L99.743 22.9789L101.678 23.4856ZM104.472 9.86532H111.223V7.86532H104.472V9.86532ZM110.278 8.54L102.688 30.6016L104.579 31.2523L112.169 9.19063L110.278 8.54ZM102.685 30.6107C102.352 31.6085 101.887 32.4718 101.294 33.2114L102.854 34.4627C103.606 33.5244 104.181 32.4477 104.582 31.2432L102.685 30.6107ZM101.286 33.2203C100.729 33.9317 100 34.4996 99.0775 34.9192L99.9051 36.7399C101.097 36.1981 102.09 35.4377 102.861 34.4538L101.286 33.2203ZM99.0746 34.9205C98.1925 35.3247 97.051 35.5505 95.6111 35.5505V37.5505C97.2474 37.5505 98.6926 37.2956 99.9079 36.7386L99.0746 34.9205Z" fill="black" mask="url(#path-1-outside-1_1_597)"/>
</g>
<defs>
<filter id="filter0_d_1_597" x="0.382324" y="0.397217" width="114.841" height="44.1533" filterUnits="userSpaceOnUse" color-interpolation-filters="sRGB">
<feFlood flood-opacity="0" result="BackgroundImageFix"/>
<feColorMatrix in="SourceAlpha" type="matrix" values="0 0 0 0 0 0 0 0 0 0 0 0 0 0 0 0 0 0 127 0" result="hardAlpha"/>
<feOffset dy="4"/>
<feGaussianBlur stdDeviation="2"/>
<feComposite in2="hardAlpha" operator="out"/>
<feColorMatrix type="matrix" values="0 0 0 0 0 0 0 0 0 0 0 0 0 0 0 0 0 0 0.25 0"/>
<feBlend mode="normal" in2="BackgroundImageFix" result="effect1_dropShadow_1_597"/>
<feBlend mode="normal" in="SourceGraphic" in2="effect1_dropShadow_1_597" result="shape"/>
</filter>
<radialGradient id="paint0_radial_1_597" cx="0" cy="0" r="1" gradientUnits="userSpaceOnUse" gradientTransform="translate(8.12143 29.3458) rotate(-4.80508) scale(105.083 5704.61)">
<stop stop-color="#EBA756"/>
<stop offset="1" stop-color="#144EE3"/>
</radialGradient>
</defs>
</svg>
