<svg width="1728" height="1117" viewBox="0 0 1728 1117" fill="none" xmlns="http://www.w3.org/2000/svg">
<g clip-path="url(#clip0_1_592)">
<rect width="1728" height="1117" fill="#0B101B"/>
<g opacity="0.33" filter="url(#filter0_d_1_592)">
<path opacity="0.05" d="M863.97 1458.34C1360.68 1458.34 1763.34 1055.68 1763.34 558.971C1763.34 62.263 1360.68 -340.398 863.97 -340.398C367.262 -340.398 -35.3994 62.263 -35.3994 558.971C-35.3994 1055.68 367.262 1458.34 863.97 1458.34Z" stroke="url(#paint0_linear_1_592)" stroke-linecap="round" stroke-dasharray="1000 1000"/>
<path opacity="0.1" d="M1114.97 1379.95C1568.38 1241.33 1823.57 761.386 1684.95 307.973C1546.33 -145.441 1066.39 -400.629 612.972 -262.007C159.559 -123.384 -95.6293 356.555 42.9931 809.968C181.615 1263.38 661.555 1518.57 1114.97 1379.95Z" stroke="url(#paint1_linear_1_592)" stroke-linecap="round" stroke-dasharray="1000 1000"/>
<path opacity="0.14" d="M1321.17 1236.8C1695.53 984.294 1794.3 476.124 1541.8 101.77C1289.29 -272.584 781.124 -371.362 406.77 -118.857C32.4155 133.648 -66.3627 641.818 186.142 1016.17C438.648 1390.53 946.818 1489.3 1321.17 1236.8Z" stroke="url(#paint2_linear_1_592)" stroke-linecap="round" stroke-dasharray="1000 1000"/>
<path opacity="0.19" d="M1467.6 1047.78C1737.56 714.405 1686.16 225.302 1352.78 -44.6606C1019.41 -314.623 530.302 -263.217 260.339 70.1597C-9.62356 403.536 41.7833 892.639 375.16 1162.6C708.536 1432.56 1197.64 1381.16 1467.6 1047.78Z" stroke="url(#paint3_linear_1_592)" stroke-linecap="round" stroke-dasharray="1000 1000"/>
<path opacity="0.23" d="M1550.94 822.675C1696.58 443.27 1507.08 17.6374 1127.67 -128.002C748.27 -273.642 322.637 -84.1384 176.997 295.266C31.3574 674.671 220.861 1100.3 600.266 1245.94C979.671 1391.58 1405.3 1202.08 1550.94 822.675Z" stroke="url(#paint4_linear_1_592)" stroke-linecap="round" stroke-dasharray="1000 1000"/>
<path opacity="0.28" d="M1557.24 607.45C1584.02 224.565 1295.33 -107.529 912.448 -134.303C529.563 -161.077 197.469 127.608 170.695 510.493C143.921 893.378 432.606 1225.47 815.491 1252.25C1198.38 1279.02 1530.47 990.335 1557.24 607.45Z" stroke="url(#paint5_linear_1_592)" stroke-linecap="round" stroke-dasharray="1000 1000"/>
<path opacity="0.32" d="M1501.29 411.834C1420.03 59.8501 1068.82 -159.613 716.833 -78.3515C364.849 2.91038 145.386 354.125 226.648 706.109C307.909 1058.09 659.124 1277.56 1011.11 1196.29C1363.09 1115.03 1582.55 763.817 1501.29 411.834Z" stroke="url(#paint6_linear_1_592)" stroke-linecap="round" stroke-dasharray="1000 1000"/>
<path opacity="0.37" d="M1395.02 252.367C1225.69 -40.9251 850.66 -141.414 557.367 27.9179C264.075 197.25 163.586 572.282 332.918 865.574C502.251 1158.87 877.282 1259.36 1170.57 1090.02C1463.87 920.691 1564.36 545.659 1395.02 252.367Z" stroke="url(#paint7_linear_1_592)" stroke-linecap="round" stroke-dasharray="881 1000"/>
<path opacity="0.41" d="M1254.3 140.398C1023.12 -75.173 660.968 -62.5263 445.398 168.645C229.827 399.817 242.474 761.973 473.645 977.543C704.816 1193.11 1066.97 1180.47 1282.54 949.296C1498.11 718.125 1485.47 355.969 1254.3 140.398Z" stroke="url(#paint8_linear_1_592)" stroke-linecap="round" stroke-dasharray="764 1000"/>
<path opacity="0.46" d="M1096.94 81.3103C833.136 -47.3557 514.976 62.1956 386.31 326C257.644 589.805 367.195 907.965 631 1036.63C894.804 1165.3 1212.96 1055.75 1341.63 791.941C1470.3 528.137 1360.75 209.976 1096.94 81.3103Z" stroke="url(#paint9_linear_1_592)" stroke-linecap="round" stroke-dasharray="655 1000"/>
<path opacity="0.5" d="M940.712 74.4459C673.116 32.0629 421.828 214.634 379.445 482.23C337.062 749.826 519.633 1001.11 787.229 1043.5C1054.83 1085.88 1306.11 903.309 1348.5 635.713C1390.88 368.117 1208.31 116.829 940.712 74.4459Z" stroke="url(#paint10_linear_1_592)" stroke-linecap="round" stroke-dasharray="554 1000"/>
<path opacity="0.55" d="M793.624 114.822C548.328 153.673 380.971 384.02 419.822 629.317C458.673 874.613 689.02 1041.97 934.316 1003.12C1179.61 964.268 1346.97 733.921 1308.12 488.624C1269.27 243.328 1038.92 75.9707 793.624 114.822Z" stroke="url(#paint11_linear_1_592)" stroke-linecap="round" stroke-dasharray="462 1000"/>
<path opacity="0.59" d="M684.762 191.54C481.836 290.513 397.566 535.252 496.539 738.179C595.513 941.105 840.252 1025.38 1043.18 926.401C1246.1 827.428 1330.38 582.689 1231.4 379.762C1132.43 176.836 887.689 92.5656 684.762 191.54Z" stroke="url(#paint12_linear_1_592)" stroke-linecap="round" stroke-dasharray="378 1000"/>
<path opacity="0.64" d="M613.047 289.888C464.437 428.469 456.307 661.284 594.888 809.894C733.469 958.504 966.284 966.634 1114.89 828.053C1263.5 689.472 1271.63 456.657 1133.05 308.047C994.472 159.437 761.657 151.307 613.047 289.888Z" stroke="url(#paint13_linear_1_592)" stroke-linecap="round" stroke-dasharray="302 933"/>
<path opacity="0.68" d="M580.743 395.449C490.432 551.872 544.027 751.888 700.449 842.199C856.872 932.509 1056.89 878.915 1147.2 722.493C1237.51 566.07 1183.92 366.053 1027.49 275.743C871.07 185.432 671.054 239.027 580.743 395.449Z" stroke="url(#paint14_linear_1_592)" stroke-linecap="round" stroke-dasharray="235 829"/>
<path opacity="0.73" d="M585.142 494.598C549.59 648.591 645.605 802.247 799.598 837.799C953.591 873.351 1107.25 777.336 1142.8 623.343C1178.35 469.351 1082.34 315.694 928.343 280.142C774.35 244.59 620.694 340.605 585.142 494.598Z" stroke="url(#paint15_linear_1_592)" stroke-linecap="round" stroke-dasharray="176 726"/>
<path opacity="0.77" d="M619.285 576.081C628.734 711.217 745.944 813.106 881.08 803.656C1016.22 794.206 1118.1 676.997 1108.65 541.861C1099.21 406.725 981.996 304.836 846.86 314.286C711.724 323.735 609.835 440.945 619.285 576.081Z" stroke="url(#paint16_linear_1_592)" stroke-linecap="round" stroke-dasharray="126 622"/>
<path opacity="0.82" d="M673.144 632.222C713.6 737.612 831.831 790.252 937.221 749.797C1042.61 709.341 1095.25 591.11 1054.8 485.72C1014.34 380.329 896.109 327.689 790.719 368.145C685.329 408.6 632.689 526.832 673.144 632.222Z" stroke="url(#paint17_linear_1_592)" stroke-linecap="round" stroke-dasharray="84 518"/>
<path opacity="0.86" d="M736.891 661.879C793.725 732.063 896.694 742.886 966.878 686.051C1037.06 629.217 1047.89 526.248 991.051 456.064C934.217 385.879 831.248 375.057 761.063 431.891C690.879 488.725 680.056 591.694 736.891 661.879Z" stroke="url(#paint18_linear_1_592)" stroke-linecap="round" stroke-dasharray="50 415"/>
<path opacity="0.91" d="M795.391 660.645C851.544 698.52 927.77 683.704 965.645 627.55C1003.52 571.397 988.704 495.172 932.551 457.296C876.398 419.42 800.173 434.237 762.297 490.39C724.421 546.543 739.238 622.769 795.391 660.645Z" stroke="url(#paint19_linear_1_592)" stroke-linecap="round" stroke-dasharray="25 311"/>
<path opacity="0.95" d="M840.067 637.159C883.249 650.361 928.957 626.058 942.16 582.875C955.362 539.693 931.058 493.985 887.876 480.783C844.694 467.58 798.985 491.884 785.783 535.066C772.581 578.249 796.884 623.957 840.067 637.159Z" stroke="url(#paint20_linear_1_592)" stroke-linecap="round" stroke-dasharray="8 207"/>
<path d="M863.971 599.851C886.549 599.851 904.852 581.548 904.852 558.97C904.852 536.393 886.549 518.09 863.971 518.09C841.394 518.09 823.091 536.393 823.091 558.97C823.091 581.548 841.394 599.851 863.971 599.851Z" stroke="url(#paint21_linear_1_592)" stroke-linecap="round"/>
</g>
<mask id="mask0_1_592" style="mask-type:alpha" maskUnits="userSpaceOnUse" x="-594" y="-270" width="1542" height="1454">
<rect x="444" y="-22.5991" width="261.206" height="261.206" rx="59.217" transform="rotate(-45 444 -22.5991)" fill="#0E131E"/>
<rect x="392" y="588.401" width="335.736" height="335.736" rx="59.217" transform="rotate(-45 392 588.401)" fill="#0E131E"/>
</mask>
<g mask="url(#mask0_1_592)">
<g filter="url(#filter1_d_1_592)">
<mask id="path-25-outside-1_1_592" maskUnits="userSpaceOnUse" x="53" y="53" width="110" height="39" fill="black">
<rect fill="white" x="53" y="53" width="110" height="39"/>
<path d="M54.3824 83V56.1538H60.8711V77.7304H72.0396V83H54.3824ZM75.3986 83V62.8653H81.8087V83H75.3986ZM78.6102 60.5189C77.7101 60.5189 76.9367 60.2218 76.29 59.6275C75.6433 59.0245 75.32 58.2992 75.32 57.4515C75.32 56.6126 75.6433 55.896 76.29 55.3017C76.9367 54.6987 77.7101 54.3972 78.6102 54.3972C79.5191 54.3972 80.2925 54.6987 80.9304 55.3017C81.5771 55.896 81.9005 56.6126 81.9005 57.4515C81.9005 58.2992 81.5771 59.0245 80.9304 59.6275C80.2925 60.2218 79.5191 60.5189 78.6102 60.5189ZM92.2988 71.5169V83H85.8887V62.8653H91.9842V66.5619H92.207C92.6527 65.3297 93.413 64.3641 94.4879 63.6649C95.5628 62.9571 96.8431 62.6031 98.3287 62.6031C99.7444 62.6031 100.972 62.9221 102.012 63.5601C103.061 64.1893 103.874 65.0719 104.45 66.208C105.036 67.3353 105.324 68.6549 105.316 70.1668V83H98.9055V71.4252C98.9142 70.3066 98.6302 69.4327 98.0534 68.8035C97.4854 68.1743 96.6945 67.8597 95.6808 67.8597C95.0079 67.8597 94.4136 68.0082 93.898 68.3054C93.3912 68.5937 92.9979 69.0088 92.7183 69.5507C92.4474 70.0925 92.3075 70.7479 92.2988 71.5169ZM115.065 77.7173L115.091 70.075H115.983L121.645 62.8653H128.908L120.492 73.1948H118.801L115.065 77.7173ZM109.284 83V56.1538H115.694V83H109.284ZM121.79 83L116.52 74.6368L120.741 70.0881L129.196 83H121.79ZM137.612 56.1538V83H131.202V56.1538H137.612ZM145.611 90.5505C144.842 90.5505 144.117 90.4893 143.435 90.367C142.753 90.2534 142.168 90.1004 141.679 89.9082L143.094 85.2547C143.724 85.4644 144.292 85.5867 144.798 85.6217C145.314 85.6567 145.755 85.5736 146.122 85.3726C146.498 85.1804 146.787 84.8352 146.988 84.3371L147.237 83.7341L140.079 62.8653H146.791L150.501 77.2323H150.71L154.472 62.8653H161.223L153.634 84.927C153.267 86.0281 152.747 86.9981 152.074 87.837C151.409 88.6847 150.549 89.3489 149.491 89.8295C148.443 90.3102 147.149 90.5505 145.611 90.5505Z"/>
</mask>
<path d="M54.3824 83V56.1538H60.8711V77.7304H72.0396V83H54.3824ZM75.3986 83V62.8653H81.8087V83H75.3986ZM78.6102 60.5189C77.7101 60.5189 76.9367 60.2218 76.29 59.6275C75.6433 59.0245 75.32 58.2992 75.32 57.4515C75.32 56.6126 75.6433 55.896 76.29 55.3017C76.9367 54.6987 77.7101 54.3972 78.6102 54.3972C79.5191 54.3972 80.2925 54.6987 80.9304 55.3017C81.5771 55.896 81.9005 56.6126 81.9005 57.4515C81.9005 58.2992 81.5771 59.0245 80.9304 59.6275C80.2925 60.2218 79.5191 60.5189 78.6102 60.5189ZM92.2988 71.5169V83H85.8887V62.8653H91.9842V66.5619H92.207C92.6527 65.3297 93.413 64.3641 94.4879 63.6649C95.5628 62.9571 96.8431 62.6031 98.3287 62.6031C99.7444 62.6031 100.972 62.9221 102.012 63.5601C103.061 64.1893 103.874 65.0719 104.45 66.208C105.036 67.3353 105.324 68.6549 105.316 70.1668V83H98.9055V71.4252C98.9142 70.3066 98.6302 69.4327 98.0534 68.8035C97.4854 68.1743 96.6945 67.8597 95.6808 67.8597C95.0079 67.8597 94.4136 68.0082 93.898 68.3054C93.3912 68.5937 92.9979 69.0088 92.7183 69.5507C92.4474 70.0925 92.3075 70.7479 92.2988 71.5169ZM115.065 77.7173L115.091 70.075H115.983L121.645 62.8653H128.908L120.492 73.1948H118.801L115.065 77.7173ZM109.284 83V56.1538H115.694V83H109.284ZM121.79 83L116.52 74.6368L120.741 70.0881L129.196 83H121.79ZM137.612 56.1538V83H131.202V56.1538H137.612ZM145.611 90.5505C144.842 90.5505 144.117 90.4893 143.435 90.367C142.753 90.2534 142.168 90.1004 141.679 89.9082L143.094 85.2547C143.724 85.4644 144.292 85.5867 144.798 85.6217C145.314 85.6567 145.755 85.5736 146.122 85.3726C146.498 85.1804 146.787 84.8352 146.988 84.3371L147.237 83.7341L140.079 62.8653H146.791L150.501 77.2323H150.71L154.472 62.8653H161.223L153.634 84.927C153.267 86.0281 152.747 86.9981 152.074 87.837C151.409 88.6847 150.549 89.3489 149.491 89.8295C148.443 90.3102 147.149 90.5505 145.611 90.5505Z" fill="url(#paint22_radial_1_592)"/>
<path d="M54.3824 83H53.3824V84H54.3824V83ZM54.3824 56.1538V55.1538H53.3824V56.1538H54.3824ZM60.8711 56.1538H61.8711V55.1538H60.8711V56.1538ZM60.8711 77.7304H59.8711V78.7304H60.8711V77.7304ZM72.0396 77.7304H73.0396V76.7304H72.0396V77.7304ZM72.0396 83V84H73.0396V83H72.0396ZM55.3824 83V56.1538H53.3824V83H55.3824ZM54.3824 57.1538H60.8711V55.1538H54.3824V57.1538ZM59.8711 56.1538V77.7304H61.8711V56.1538H59.8711ZM60.8711 78.7304H72.0396V76.7304H60.8711V78.7304ZM71.0396 77.7304V83H73.0396V77.7304H71.0396ZM72.0396 82H54.3824V84H72.0396V82ZM75.3986 83H74.3986V84H75.3986V83ZM75.3986 62.8653V61.8653H74.3986V62.8653H75.3986ZM81.8087 62.8653H82.8087V61.8653H81.8087V62.8653ZM81.8087 83V84H82.8087V83H81.8087ZM76.29 59.6275L75.608 60.3589L75.6134 60.3638L76.29 59.6275ZM76.29 55.3017L76.9667 56.0381L76.972 56.0331L76.29 55.3017ZM80.9304 55.3017L80.2435 56.0285L80.2538 56.038L80.9304 55.3017ZM80.9304 59.6275L81.612 60.3592L81.6124 60.3589L80.9304 59.6275ZM76.3986 83V62.8653H74.3986V83H76.3986ZM75.3986 63.8653H81.8087V61.8653H75.3986V63.8653ZM80.8087 62.8653V83H82.8087V62.8653H80.8087ZM81.8087 82H75.3986V84H81.8087V82ZM78.6102 59.5189C77.9538 59.5189 77.4238 59.3113 76.9666 58.8912L75.6134 60.3638C76.4496 61.1323 77.4664 61.5189 78.6102 61.5189V59.5189ZM76.972 58.8961C76.5183 58.4731 76.32 58.0086 76.32 57.4515H74.32C74.32 58.5897 74.7684 59.5759 75.6081 60.3589L76.972 58.8961ZM76.32 57.4515C76.32 56.9069 76.5151 56.4529 76.9666 56.038L75.6134 54.5654C74.7715 55.339 74.32 56.3182 74.32 57.4515H76.32ZM76.972 56.0331C77.4299 55.6061 77.9582 55.3972 78.6102 55.3972V53.3972C77.462 53.3972 76.4435 53.7913 75.6081 54.5703L76.972 56.0331ZM78.6102 55.3972C79.2736 55.3972 79.7984 55.6077 80.2435 56.0284L81.6174 54.575C80.7866 53.7897 79.7646 53.3972 78.6102 53.3972V55.3972ZM80.2538 56.038C80.7053 56.4529 80.9005 56.9069 80.9005 57.4515H82.9005C82.9005 56.3182 82.4489 55.339 81.6071 54.5654L80.2538 56.038ZM80.9005 57.4515C80.9005 58.0086 80.7022 58.4731 80.2485 58.8961L81.6124 60.3589C82.4521 59.5759 82.9005 58.5897 82.9005 57.4515H80.9005ZM80.2488 58.8958C79.8045 59.3097 79.278 59.5189 78.6102 59.5189V61.5189C79.7602 61.5189 80.7805 61.1338 81.612 60.3592L80.2488 58.8958ZM92.2988 71.5169L91.2988 71.5056V71.5169H92.2988ZM92.2988 83V84H93.2988V83H92.2988ZM85.8887 83H84.8887V84H85.8887V83ZM85.8887 62.8653V61.8653H84.8887V62.8653H85.8887ZM91.9842 62.8653H92.9842V61.8653H91.9842V62.8653ZM91.9842 66.5619H90.9842V67.5619H91.9842V66.5619ZM92.207 66.5619V67.5619H92.9087L93.1474 66.9021L92.207 66.5619ZM94.4879 63.6649L95.0332 64.5032L95.0379 64.5001L94.4879 63.6649ZM102.012 63.5601L101.489 64.4125L101.498 64.4176L102.012 63.5601ZM104.45 66.208L103.559 66.6607L103.563 66.6689L104.45 66.208ZM105.316 70.1668L104.316 70.161V70.1668H105.316ZM105.316 83V84H106.316V83H105.316ZM98.9055 83H97.9055V84H98.9055V83ZM98.9055 71.4252L97.9055 71.4174V71.4252H98.9055ZM98.0534 68.8035L97.3111 69.4736L97.3163 69.4792L98.0534 68.8035ZM93.898 68.3054L94.3926 69.1745L94.3973 69.1718L93.898 68.3054ZM92.7183 69.5507L91.8296 69.092L91.8238 69.1034L92.7183 69.5507ZM91.2988 71.5169V83H93.2988V71.5169H91.2988ZM92.2988 82H85.8887V84H92.2988V82ZM86.8887 83V62.8653H84.8887V83H86.8887ZM85.8887 63.8653H91.9842V61.8653H85.8887V63.8653ZM90.9842 62.8653V66.5619H92.9842V62.8653H90.9842ZM91.9842 67.5619H92.207V65.5619H91.9842V67.5619ZM93.1474 66.9021C93.5208 65.8696 94.1449 65.0809 95.0331 64.5032L93.9427 62.8267C92.6811 63.6472 91.7846 64.7898 91.2667 66.2218L93.1474 66.9021ZM95.0379 64.5001C95.9255 63.9156 97.0076 63.6031 98.3287 63.6031V61.6031C96.6785 61.6031 95.2002 61.9985 93.9379 62.8298L95.0379 64.5001ZM98.3287 63.6031C99.59 63.6031 100.631 63.8857 101.489 64.4125L102.535 62.7077C101.314 61.9586 99.8989 61.6031 98.3287 61.6031V63.6031ZM101.498 64.4176C102.378 64.9458 103.063 65.685 103.559 66.6607L105.342 65.7553C104.684 64.4589 103.744 63.4327 102.527 62.7026L101.498 64.4176ZM103.563 66.6689C104.061 67.6271 104.324 68.7808 104.316 70.161L106.316 70.1725C106.325 68.5291 106.011 67.0435 105.338 65.7471L103.563 66.6689ZM104.316 70.1668V83H106.316V70.1668H104.316ZM105.316 82H98.9055V84H105.316V82ZM99.9055 83V71.4252H97.9055V83H99.9055ZM99.9055 71.433C99.9155 70.1423 99.5859 68.9954 98.7906 68.1278L97.3163 69.4792C97.6745 69.87 97.9129 70.4709 97.9055 71.4174L99.9055 71.433ZM98.7957 68.1334C98.0011 67.2531 96.9171 66.8597 95.6808 66.8597V68.8597C96.4719 68.8597 96.9697 69.0954 97.3112 69.4736L98.7957 68.1334ZM95.6808 66.8597C94.856 66.8597 94.0852 67.0433 93.3987 67.4389L94.3973 69.1718C94.7421 68.9731 95.1598 68.8597 95.6808 68.8597V66.8597ZM93.4035 67.4362C92.7204 67.8249 92.1939 68.3863 91.8297 69.092L93.6069 70.0093C93.802 69.6313 94.062 69.3626 94.3926 69.1745L93.4035 67.4362ZM91.8238 69.1034C91.4695 69.8121 91.3089 70.6247 91.2989 71.5056L93.2987 71.5283C93.3062 70.8711 93.4252 70.3728 93.6127 69.9979L91.8238 69.1034ZM115.065 77.7173L114.065 77.7138L114.055 80.5095L115.836 78.3541L115.065 77.7173ZM115.091 70.075V69.075H114.095L114.091 70.0716L115.091 70.075ZM115.983 70.075V71.075H116.469L116.769 70.6927L115.983 70.075ZM121.645 62.8653V61.8653H121.159L120.859 62.2476L121.645 62.8653ZM128.908 62.8653L129.683 63.4969L131.012 61.8653H128.908V62.8653ZM120.492 73.1948V74.1948H120.967L121.267 73.8265L120.492 73.1948ZM118.801 73.1948V72.1948H118.33L118.03 72.5579L118.801 73.1948ZM109.284 83H108.284V84H109.284V83ZM109.284 56.1538V55.1538H108.284V56.1538H109.284ZM115.694 56.1538H116.694V55.1538H115.694V56.1538ZM115.694 83V84H116.694V83H115.694ZM121.79 83L120.944 83.5331L121.238 84H121.79V83ZM116.52 74.6368L115.787 73.9566L115.264 74.5198L115.674 75.1699L116.52 74.6368ZM120.741 70.0881L121.578 69.5403L120.877 68.471L120.008 69.4079L120.741 70.0881ZM129.196 83V84H131.046L130.033 82.4522L129.196 83ZM116.065 77.7207L116.091 70.0784L114.091 70.0716L114.065 77.7138L116.065 77.7207ZM115.091 71.075H115.983V69.075H115.091V71.075ZM116.769 70.6927L122.432 63.483L120.859 62.2476L115.196 69.4573L116.769 70.6927ZM121.645 63.8653H128.908V61.8653H121.645V63.8653ZM128.132 62.2337L119.717 72.5632L121.267 73.8265L129.683 63.4969L128.132 62.2337ZM120.492 72.1948H118.801V74.1948H120.492V72.1948ZM118.03 72.5579L114.294 77.0804L115.836 78.3541L119.572 73.8317L118.03 72.5579ZM110.284 83V56.1538H108.284V83H110.284ZM109.284 57.1538H115.694V55.1538H109.284V57.1538ZM114.694 56.1538V83H116.694V56.1538H114.694ZM115.694 82H109.284V84H115.694V82ZM122.636 82.4669L117.366 74.1037L115.674 75.1699L120.944 83.5331L122.636 82.4669ZM117.253 75.317L121.474 70.7683L120.008 69.4079L115.787 73.9566L117.253 75.317ZM119.904 70.6359L128.359 83.5478L130.033 82.4522L121.578 69.5403L119.904 70.6359ZM129.196 82H121.79V84H129.196V82ZM137.612 56.1538H138.612V55.1538H137.612V56.1538ZM137.612 83V84H138.612V83H137.612ZM131.202 83H130.202V84H131.202V83ZM131.202 56.1538V55.1538H130.202V56.1538H131.202ZM136.612 56.1538V83H138.612V56.1538H136.612ZM137.612 82H131.202V84H137.612V82ZM132.202 83V56.1538H130.202V83H132.202ZM131.202 57.1538H137.612V55.1538H131.202V57.1538ZM143.435 90.367L143.612 89.3826L143.6 89.3806L143.435 90.367ZM141.679 89.9082L140.722 89.6171L140.453 90.5011L141.313 90.8389L141.679 89.9082ZM143.094 85.2547L143.411 84.306L142.436 83.9813L142.138 84.9636L143.094 85.2547ZM144.798 85.6217L144.73 86.6193L144.731 86.6194L144.798 85.6217ZM146.122 85.3726L145.667 84.4824L145.654 84.4888L145.642 84.4955L146.122 85.3726ZM146.988 84.3371L146.063 83.9553L146.06 83.9629L146.988 84.3371ZM147.237 83.7341L148.161 84.1158L148.305 83.7668L148.183 83.4097L147.237 83.7341ZM140.079 62.8653V61.8653H138.679L139.133 63.1897L140.079 62.8653ZM146.791 62.8653L147.759 62.6153L147.565 61.8653H146.791V62.8653ZM150.501 77.2323L149.532 77.4823L149.726 78.2323H150.501V77.2323ZM150.71 77.2323V78.2323H151.482L151.678 77.4856L150.71 77.2323ZM154.472 62.8653V61.8653H153.701L153.505 62.612L154.472 62.8653ZM161.223 62.8653L162.169 63.1906L162.625 61.8653H161.223V62.8653ZM153.634 84.927L152.688 84.6016L152.685 84.6107L153.634 84.927ZM152.074 87.837L151.294 87.2113L151.286 87.2203L152.074 87.837ZM149.491 89.8295L149.077 88.9192L149.075 88.9205L149.491 89.8295ZM145.611 89.5505C144.895 89.5505 144.229 89.4935 143.612 89.3827L143.258 91.3513C144.004 91.4851 144.789 91.5505 145.611 91.5505V89.5505ZM143.6 89.3806C142.967 89.2751 142.452 89.1377 142.044 88.9774L141.313 90.8389C141.884 91.0632 142.54 91.2317 143.271 91.3534L143.6 89.3806ZM142.635 90.1992L144.051 85.5457L142.138 84.9636L140.722 89.6171L142.635 90.1992ZM142.778 86.2034C143.464 86.4321 144.117 86.5771 144.73 86.6193L144.867 84.6241C144.466 84.5964 143.983 84.4967 143.411 84.306L142.778 86.2034ZM144.731 86.6194C145.392 86.6642 146.033 86.5618 146.603 86.2497L145.642 84.4955C145.478 84.5855 145.236 84.6491 144.866 84.624L144.731 86.6194ZM146.578 86.2629C147.221 85.9338 147.649 85.37 147.915 84.7113L146.06 83.9629C145.924 84.3003 145.775 84.427 145.667 84.4824L146.578 86.2629ZM147.912 84.7188L148.161 84.1158L146.312 83.3523L146.063 83.9553L147.912 84.7188ZM148.183 83.4097L141.025 62.5409L139.133 63.1897L146.291 84.0585L148.183 83.4097ZM140.079 63.8653H146.791V61.8653H140.079V63.8653ZM145.823 63.1153L149.532 77.4823L151.469 76.9822L147.759 62.6153L145.823 63.1153ZM150.501 78.2323H150.71V76.2323H150.501V78.2323ZM151.678 77.4856L155.44 63.1186L153.505 62.612L149.743 76.9789L151.678 77.4856ZM154.472 63.8653H161.223V61.8653H154.472V63.8653ZM160.278 62.54L152.688 84.6016L154.579 85.2523L162.169 63.1906L160.278 62.54ZM152.685 84.6107C152.352 85.6085 151.887 86.4718 151.294 87.2114L152.854 88.4627C153.606 87.5244 154.181 86.4477 154.582 85.2432L152.685 84.6107ZM151.286 87.2203C150.729 87.9317 150 88.4996 149.077 88.9192L149.905 90.7399C151.097 90.1981 152.09 89.4377 152.861 88.4538L151.286 87.2203ZM149.075 88.9205C148.193 89.3247 147.051 89.5505 145.611 89.5505V91.5505C147.247 91.5505 148.693 91.2956 149.908 90.7386L149.075 88.9205Z" fill="black" mask="url(#path-25-outside-1_1_592)"/>
</g>
<path d="M165.65 58.446V54.777H167.41C167.595 54.777 167.774 54.8217 167.946 54.9112C168.122 54.9974 168.266 55.1267 168.379 55.299C168.495 55.468 168.553 55.6768 168.553 55.9254C168.553 56.174 168.493 56.3894 168.374 56.5717C168.258 56.7507 168.109 56.8883 167.927 56.9844C167.748 57.0805 167.562 57.1286 167.37 57.1286H166.008V56.6264H167.201C167.37 56.6264 167.521 56.5668 167.653 56.4474C167.789 56.3248 167.857 56.1508 167.857 55.9254C167.857 55.6934 167.789 55.5277 167.653 55.4283C167.521 55.3288 167.375 55.2791 167.216 55.2791H166.291V58.446H165.65ZM167.787 56.7408L168.702 58.446H167.986L167.096 56.7408H167.787ZM166.997 60.6335C166.447 60.6335 165.931 60.5308 165.451 60.3253C164.97 60.1198 164.548 59.8348 164.183 59.4702C163.818 59.1056 163.533 58.683 163.328 58.2024C163.122 57.7218 163.02 57.2064 163.02 56.6562C163.02 56.1061 163.122 55.5907 163.328 55.1101C163.533 54.6295 163.818 54.2069 164.183 53.8423C164.548 53.4777 164.97 53.1927 165.451 52.9872C165.931 52.7817 166.447 52.679 166.997 52.679C167.547 52.679 168.062 52.7817 168.543 52.9872C169.024 53.1927 169.446 53.4777 169.811 53.8423C170.175 54.2069 170.46 54.6295 170.666 55.1101C170.871 55.5907 170.974 56.1061 170.974 56.6562C170.974 57.2064 170.871 57.7218 170.666 58.2024C170.46 58.683 170.175 59.1056 169.811 59.4702C169.446 59.8348 169.024 60.1198 168.543 60.3253C168.062 60.5308 167.547 60.6335 166.997 60.6335ZM166.997 59.8928C167.593 59.8928 168.135 59.7469 168.623 59.4553C169.113 59.1636 169.504 58.7741 169.796 58.2869C170.088 57.7964 170.233 57.2528 170.233 56.6562C170.233 56.0597 170.088 55.5178 169.796 55.0305C169.504 54.54 169.113 54.1489 168.623 53.8572C168.135 53.5656 167.593 53.4197 166.997 53.4197C166.4 53.4197 165.857 53.5656 165.366 53.8572C164.879 54.1489 164.49 54.54 164.198 55.0305C163.906 55.5178 163.76 56.0597 163.76 56.6562C163.76 57.2528 163.906 57.7964 164.198 58.2869C164.49 58.7741 164.879 59.1636 165.366 59.4553C165.857 59.7469 166.4 59.8928 166.997 59.8928Z" fill="white" fill-opacity="0.5"/>
<g filter="url(#filter2_bf_1_592)">
<rect x="153" y="1026" width="1421" height="148" fill="url(#paint23_linear_1_592)" fill-opacity="0.57"/>
</g>
<path d="M734.634 1078V1067.82H737.921C738.643 1067.82 739.246 1067.95 739.73 1068.21C740.218 1068.47 740.584 1068.83 740.829 1069.29C741.078 1069.75 741.202 1070.27 741.202 1070.87C741.202 1071.46 741.078 1071.98 740.829 1072.44C740.584 1072.89 740.219 1073.25 739.735 1073.5C739.251 1073.76 738.652 1073.88 737.936 1073.88H735.137V1073.03H737.911C738.441 1073.03 738.882 1072.95 739.233 1072.77C739.588 1072.59 739.851 1072.34 740.024 1072.02C740.199 1071.69 740.287 1071.31 740.287 1070.87C740.287 1070.42 740.199 1070.03 740.024 1069.7C739.848 1069.37 739.583 1069.11 739.228 1068.93C738.877 1068.74 738.433 1068.65 737.896 1068.65H735.564V1078H734.634ZM739.124 1073.41L741.63 1078H740.556L738.075 1073.41H739.124ZM746.288 1078.16C745.575 1078.16 744.959 1077.99 744.438 1077.66C743.918 1077.33 743.515 1076.86 743.23 1076.27C742.949 1075.68 742.808 1075 742.808 1074.23C742.808 1073.46 742.949 1072.77 743.23 1072.18C743.515 1071.58 743.908 1071.11 744.409 1070.77C744.912 1070.43 745.494 1070.26 746.154 1070.26C746.568 1070.26 746.967 1070.34 747.352 1070.49C747.736 1070.64 748.081 1070.87 748.386 1071.18C748.694 1071.49 748.938 1071.88 749.117 1072.35C749.296 1072.81 749.385 1073.37 749.385 1074.01V1074.45H743.419V1073.66H748.48C748.48 1073.17 748.381 1072.73 748.182 1072.34C747.987 1071.95 747.713 1071.64 747.362 1071.41C747.014 1071.18 746.611 1071.06 746.154 1071.06C745.67 1071.06 745.244 1071.19 744.876 1071.45C744.508 1071.71 744.22 1072.05 744.011 1072.48C743.805 1072.9 743.701 1073.36 743.698 1073.87V1074.34C743.698 1074.94 743.802 1075.47 744.011 1075.93C744.223 1076.38 744.523 1076.73 744.911 1076.98C745.299 1077.22 745.758 1077.35 746.288 1077.35C746.649 1077.35 746.966 1077.29 747.237 1077.18C747.513 1077.07 747.743 1076.92 747.929 1076.73C748.117 1076.54 748.26 1076.32 748.356 1076.1L749.196 1076.37C749.08 1076.69 748.89 1076.99 748.625 1077.26C748.363 1077.53 748.035 1077.75 747.64 1077.92C747.249 1078.08 746.798 1078.16 746.288 1078.16ZM754.249 1081.02C753.728 1081.02 753.273 1080.95 752.881 1080.82C752.49 1080.69 752.161 1080.5 751.892 1080.27C751.624 1080.04 751.415 1079.78 751.266 1079.49L751.992 1079.01C752.101 1079.21 752.247 1079.4 752.429 1079.58C752.615 1079.77 752.855 1079.92 753.15 1080.04C753.448 1080.17 753.814 1080.23 754.249 1080.23C754.925 1080.23 755.47 1080.06 755.884 1079.72C756.302 1079.38 756.511 1078.86 756.511 1078.14V1076.42H756.431C756.328 1076.66 756.181 1076.89 755.989 1077.12C755.796 1077.35 755.545 1077.54 755.233 1077.69C754.925 1077.84 754.542 1077.92 754.085 1077.92C753.475 1077.92 752.933 1077.77 752.459 1077.47C751.988 1077.17 751.617 1076.74 751.345 1076.18C751.077 1075.61 750.943 1074.94 750.943 1074.16C750.943 1073.39 751.073 1072.71 751.335 1072.12C751.6 1071.54 751.97 1071.08 752.444 1070.75C752.918 1070.42 753.47 1070.26 754.1 1070.26C754.567 1070.26 754.955 1070.34 755.263 1070.51C755.571 1070.67 755.818 1070.87 756.004 1071.11C756.193 1071.36 756.34 1071.59 756.446 1071.82H756.536V1070.36H757.401V1078.2C757.401 1078.85 757.263 1079.38 756.988 1079.79C756.713 1080.21 756.338 1080.52 755.864 1080.72C755.39 1080.92 754.852 1081.02 754.249 1081.02ZM754.189 1077.11C754.68 1077.11 755.099 1076.99 755.447 1076.76C755.795 1076.52 756.062 1076.18 756.247 1075.73C756.433 1075.29 756.526 1074.76 756.526 1074.15C756.526 1073.55 756.435 1073.02 756.252 1072.56C756.07 1072.1 755.805 1071.73 755.457 1071.47C755.112 1071.2 754.689 1071.06 754.189 1071.06C753.679 1071.06 753.248 1071.2 752.896 1071.48C752.545 1071.75 752.28 1072.12 752.101 1072.59C751.922 1073.05 751.832 1073.57 751.832 1074.15C751.832 1074.73 751.924 1075.25 752.106 1075.69C752.288 1076.14 752.555 1076.49 752.906 1076.74C753.258 1076.99 753.685 1077.11 754.189 1077.11ZM759.753 1078V1070.36H760.643V1078H759.753ZM760.206 1069.05C760.024 1069.05 759.868 1068.99 759.739 1068.87C759.609 1068.74 759.545 1068.59 759.545 1068.41C759.545 1068.24 759.609 1068.09 759.739 1067.97C759.868 1067.84 760.024 1067.78 760.206 1067.78C760.388 1067.78 760.544 1067.84 760.673 1067.97C760.802 1068.09 760.867 1068.24 760.867 1068.41C760.867 1068.59 760.802 1068.74 760.673 1068.87C760.544 1068.99 760.388 1069.05 760.206 1069.05ZM768.114 1072.04L767.304 1072.27C767.225 1072.04 767.112 1071.83 766.966 1071.65C766.82 1071.46 766.63 1071.31 766.394 1071.2C766.162 1071.09 765.874 1071.04 765.529 1071.04C765.012 1071.04 764.588 1071.16 764.256 1071.41C763.925 1071.65 763.759 1071.97 763.759 1072.36C763.759 1072.69 763.872 1072.95 764.097 1073.16C764.326 1073.36 764.677 1073.52 765.151 1073.64L766.305 1073.92C766.944 1074.08 767.423 1074.33 767.742 1074.66C768.063 1075 768.224 1075.43 768.224 1075.94C768.224 1076.37 768.104 1076.75 767.866 1077.09C767.627 1077.42 767.294 1077.68 766.867 1077.88C766.442 1078.06 765.95 1078.16 765.39 1078.16C764.644 1078.16 764.029 1077.99 763.546 1077.66C763.062 1077.32 762.752 1076.83 762.616 1076.2L763.466 1075.99C763.575 1076.44 763.789 1076.78 764.107 1077.02C764.429 1077.25 764.851 1077.36 765.375 1077.36C765.962 1077.36 766.431 1077.23 766.782 1076.97C767.133 1076.71 767.309 1076.37 767.309 1075.98C767.309 1075.67 767.206 1075.41 767.001 1075.2C766.795 1074.99 766.484 1074.83 766.066 1074.73L764.818 1074.44C764.155 1074.28 763.665 1074.02 763.347 1073.68C763.028 1073.33 762.869 1072.91 762.869 1072.4C762.869 1071.98 762.984 1071.61 763.212 1071.29C763.441 1070.97 763.756 1070.71 764.157 1070.53C764.558 1070.35 765.015 1070.26 765.529 1070.26C766.229 1070.26 766.787 1070.42 767.205 1070.74C767.626 1071.05 767.929 1071.49 768.114 1072.04ZM773.169 1070.36V1071.13H769.525V1070.36H773.169ZM770.664 1068.53H771.554V1076.01C771.554 1076.32 771.608 1076.57 771.718 1076.76C771.827 1076.94 771.969 1077.06 772.145 1077.14C772.321 1077.21 772.508 1077.25 772.707 1077.25C772.823 1077.25 772.922 1077.24 773.005 1077.23C773.088 1077.21 773.161 1077.2 773.224 1077.18L773.413 1077.98C773.327 1078.01 773.221 1078.04 773.095 1078.07C772.969 1078.1 772.813 1078.11 772.627 1078.11C772.303 1078.11 771.989 1078.04 771.688 1077.9C771.389 1077.76 771.144 1077.55 770.952 1077.26C770.76 1076.98 770.664 1076.63 770.664 1076.22V1068.53ZM778.184 1078.16C777.472 1078.16 776.855 1077.99 776.335 1077.66C775.815 1077.33 775.412 1076.86 775.127 1076.27C774.845 1075.68 774.704 1075 774.704 1074.23C774.704 1073.46 774.845 1072.77 775.127 1072.18C775.412 1071.58 775.805 1071.11 776.305 1070.77C776.809 1070.43 777.391 1070.26 778.05 1070.26C778.464 1070.26 778.864 1070.34 779.248 1070.49C779.633 1070.64 779.977 1070.87 780.282 1071.18C780.591 1071.49 780.834 1071.88 781.013 1072.35C781.192 1072.81 781.282 1073.37 781.282 1074.01V1074.45H775.316V1073.66H780.377C780.377 1073.17 780.277 1072.73 780.079 1072.34C779.883 1071.95 779.61 1071.64 779.258 1071.41C778.91 1071.18 778.508 1071.06 778.05 1071.06C777.566 1071.06 777.14 1071.19 776.772 1071.45C776.405 1071.71 776.116 1072.05 775.907 1072.48C775.702 1072.9 775.598 1073.36 775.594 1073.87V1074.34C775.594 1074.94 775.699 1075.47 775.907 1075.93C776.12 1076.38 776.419 1076.73 776.807 1076.98C777.195 1077.22 777.654 1077.35 778.184 1077.35C778.546 1077.35 778.862 1077.29 779.134 1077.18C779.409 1077.07 779.639 1076.92 779.825 1076.73C780.014 1076.54 780.156 1076.32 780.253 1076.1L781.093 1076.37C780.977 1076.69 780.786 1076.99 780.521 1077.26C780.259 1077.53 779.931 1077.75 779.537 1077.92C779.146 1078.08 778.695 1078.16 778.184 1078.16ZM783.232 1078V1070.36H784.092V1071.54H784.157C784.309 1071.15 784.574 1070.84 784.952 1070.61C785.333 1070.37 785.764 1070.25 786.245 1070.25C786.318 1070.25 786.399 1070.25 786.488 1070.25C786.578 1070.26 786.652 1070.26 786.712 1070.26V1071.16C786.672 1071.16 786.603 1071.15 786.503 1071.13C786.404 1071.12 786.296 1071.11 786.18 1071.11C785.782 1071.11 785.428 1071.2 785.116 1071.37C784.808 1071.53 784.564 1071.76 784.385 1072.06C784.206 1072.35 784.117 1072.69 784.117 1073.07V1078H783.232ZM800.273 1067.82V1078H799.368L793.353 1069.47H793.273V1078H792.343V1067.82H793.243L799.279 1076.35H799.358V1067.82H800.273ZM805.764 1078.16C805.105 1078.16 804.521 1077.99 804.014 1077.66C803.511 1077.32 803.116 1076.86 802.831 1076.27C802.546 1075.68 802.403 1074.99 802.403 1074.22C802.403 1073.43 802.546 1072.75 802.831 1072.15C803.116 1071.56 803.511 1071.09 804.014 1070.76C804.521 1070.43 805.105 1070.26 805.764 1070.26C806.424 1070.26 807.006 1070.43 807.509 1070.76C808.013 1071.1 808.408 1071.56 808.693 1072.15C808.981 1072.75 809.125 1073.43 809.125 1074.22C809.125 1074.99 808.983 1075.68 808.698 1076.27C808.412 1076.86 808.016 1077.32 807.509 1077.66C807.006 1077.99 806.424 1078.16 805.764 1078.16ZM805.764 1077.35C806.295 1077.35 806.744 1077.21 807.112 1076.92C807.479 1076.64 807.758 1076.26 807.947 1075.78C808.139 1075.31 808.235 1074.79 808.235 1074.22C808.235 1073.65 808.139 1073.12 807.947 1072.65C807.758 1072.17 807.479 1071.79 807.112 1071.5C806.744 1071.21 806.295 1071.06 805.764 1071.06C805.237 1071.06 804.788 1071.21 804.417 1071.5C804.049 1071.79 803.769 1072.17 803.577 1072.65C803.388 1073.12 803.293 1073.65 803.293 1074.22C803.293 1074.79 803.388 1075.31 803.577 1075.78C803.769 1076.26 804.049 1076.64 804.417 1076.92C804.785 1077.21 805.234 1077.35 805.764 1077.35ZM812.503 1078L810.196 1070.36H811.131L812.941 1076.66H813.005L814.81 1070.36H815.75L817.54 1076.65H817.609L819.419 1070.36H820.353L818.047 1078H817.132L815.322 1071.74H815.228L813.418 1078H812.503Z" fill="#144EE3"/>
<path d="M829.019 1070.36V1071.13H825.375V1070.36H829.019ZM826.513 1068.53H827.403V1076.01C827.403 1076.32 827.458 1076.57 827.567 1076.76C827.677 1076.94 827.819 1077.06 827.995 1077.14C828.17 1077.21 828.358 1077.25 828.557 1077.25C828.673 1077.25 828.772 1077.24 828.855 1077.23C828.938 1077.21 829.011 1077.2 829.074 1077.18L829.263 1077.98C829.176 1078.01 829.07 1078.04 828.944 1078.07C828.818 1078.1 828.663 1078.11 828.477 1078.11C828.152 1078.11 827.839 1078.04 827.537 1077.9C827.239 1077.76 826.994 1077.55 826.802 1077.26C826.609 1076.98 826.513 1076.63 826.513 1076.22V1068.53ZM833.915 1078.16C833.255 1078.16 832.672 1077.99 832.165 1077.66C831.661 1077.32 831.266 1076.86 830.981 1076.27C830.696 1075.68 830.554 1074.99 830.554 1074.22C830.554 1073.43 830.696 1072.75 830.981 1072.15C831.266 1071.56 831.661 1071.09 832.165 1070.76C832.672 1070.43 833.255 1070.26 833.915 1070.26C834.574 1070.26 835.156 1070.43 835.66 1070.76C836.164 1071.1 836.558 1071.56 836.843 1072.15C837.131 1072.75 837.275 1073.43 837.275 1074.22C837.275 1074.99 837.133 1075.68 836.848 1076.27C836.563 1076.86 836.167 1077.32 835.66 1077.66C835.156 1077.99 834.574 1078.16 833.915 1078.16ZM833.915 1077.35C834.445 1077.35 834.894 1077.21 835.262 1076.92C835.63 1076.64 835.908 1076.26 836.097 1075.78C836.289 1075.31 836.386 1074.79 836.386 1074.22C836.386 1073.65 836.289 1073.12 836.097 1072.65C835.908 1072.17 835.63 1071.79 835.262 1071.5C834.894 1071.21 834.445 1071.06 833.915 1071.06C833.388 1071.06 832.939 1071.21 832.567 1071.5C832.199 1071.79 831.919 1072.17 831.727 1072.65C831.538 1073.12 831.444 1073.65 831.444 1074.22C831.444 1074.79 831.538 1075.31 831.727 1075.78C831.919 1076.26 832.199 1076.64 832.567 1076.92C832.935 1077.21 833.384 1077.35 833.915 1077.35ZM846.243 1078.16C845.53 1078.16 844.914 1077.99 844.394 1077.66C843.873 1077.33 843.47 1076.86 843.185 1076.27C842.904 1075.68 842.763 1075 842.763 1074.23C842.763 1073.46 842.904 1072.77 843.185 1072.18C843.47 1071.58 843.863 1071.11 844.364 1070.77C844.868 1070.43 845.449 1070.26 846.109 1070.26C846.523 1070.26 846.922 1070.34 847.307 1070.49C847.691 1070.64 848.036 1070.87 848.341 1071.18C848.649 1071.49 848.893 1071.88 849.072 1072.35C849.251 1072.81 849.34 1073.37 849.34 1074.01V1074.45H843.374V1073.66H848.435C848.435 1073.17 848.336 1072.73 848.137 1072.34C847.942 1071.95 847.668 1071.64 847.317 1071.41C846.969 1071.18 846.566 1071.06 846.109 1071.06C845.625 1071.06 845.199 1071.19 844.831 1071.45C844.463 1071.71 844.175 1072.05 843.966 1072.48C843.761 1072.9 843.656 1073.36 843.653 1073.87V1074.34C843.653 1074.94 843.757 1075.47 843.966 1075.93C844.178 1076.38 844.478 1076.73 844.866 1076.98C845.254 1077.22 845.713 1077.35 846.243 1077.35C846.604 1077.35 846.921 1077.29 847.193 1077.18C847.468 1077.07 847.698 1076.92 847.884 1076.73C848.073 1076.54 848.215 1076.32 848.311 1076.1L849.151 1076.37C849.035 1076.69 848.845 1076.99 848.58 1077.26C848.318 1077.53 847.99 1077.75 847.595 1077.92C847.204 1078.08 846.753 1078.16 846.243 1078.16ZM852.175 1073.23V1078H851.29V1070.36H852.15V1071.56H852.23C852.409 1071.17 852.687 1070.86 853.065 1070.62C853.446 1070.38 853.917 1070.26 854.477 1070.26C854.991 1070.26 855.442 1070.37 855.829 1070.59C856.221 1070.8 856.524 1071.11 856.739 1071.53C856.958 1071.94 857.067 1072.45 857.067 1073.05V1078H856.182V1073.11C856.182 1072.48 856.007 1071.99 855.655 1071.62C855.307 1071.26 854.84 1071.07 854.253 1071.07C853.852 1071.07 853.496 1071.16 853.185 1071.33C852.873 1071.51 852.626 1071.75 852.444 1072.08C852.265 1072.4 852.175 1072.78 852.175 1073.23ZM859.408 1070.36H860.298V1078.74C860.298 1079.17 860.216 1079.55 860.054 1079.86C859.895 1080.18 859.663 1080.43 859.358 1080.6C859.053 1080.78 858.685 1080.86 858.254 1080.86C858.221 1080.86 858.188 1080.86 858.155 1080.86C858.122 1080.86 858.085 1080.86 858.046 1080.86L858.055 1080.03C858.089 1080.03 858.12 1080.03 858.15 1080.03C858.18 1080.03 858.211 1080.03 858.244 1080.03C858.609 1080.03 858.894 1079.92 859.1 1079.69C859.305 1079.46 859.408 1079.15 859.408 1078.74V1070.36ZM859.845 1069.05C859.666 1069.05 859.511 1068.99 859.378 1068.87C859.249 1068.74 859.184 1068.59 859.184 1068.41C859.184 1068.24 859.249 1068.09 859.378 1067.97C859.511 1067.84 859.666 1067.78 859.845 1067.78C860.028 1067.78 860.183 1067.84 860.313 1067.97C860.445 1068.09 860.511 1068.24 860.511 1068.41C860.511 1068.59 860.445 1068.74 860.313 1068.87C860.183 1068.99 860.028 1069.05 859.845 1069.05ZM865.606 1078.16C864.947 1078.16 864.363 1077.99 863.856 1077.66C863.352 1077.32 862.958 1076.86 862.673 1076.27C862.388 1075.68 862.245 1074.99 862.245 1074.22C862.245 1073.43 862.388 1072.75 862.673 1072.15C862.958 1071.56 863.352 1071.09 863.856 1070.76C864.363 1070.43 864.947 1070.26 865.606 1070.26C866.266 1070.26 866.847 1070.43 867.351 1070.76C867.855 1071.1 868.249 1071.56 868.534 1072.15C868.823 1072.75 868.967 1073.43 868.967 1074.22C868.967 1074.99 868.824 1075.68 868.539 1076.27C868.254 1076.86 867.858 1077.32 867.351 1077.66C866.847 1077.99 866.266 1078.16 865.606 1078.16ZM865.606 1077.35C866.136 1077.35 866.585 1077.21 866.953 1076.92C867.321 1076.64 867.6 1076.26 867.789 1075.78C867.981 1075.31 868.077 1074.79 868.077 1074.22C868.077 1073.65 867.981 1073.12 867.789 1072.65C867.6 1072.17 867.321 1071.79 866.953 1071.5C866.585 1071.21 866.136 1071.06 865.606 1071.06C865.079 1071.06 864.63 1071.21 864.259 1071.5C863.891 1071.79 863.611 1072.17 863.419 1072.65C863.23 1073.12 863.135 1073.65 863.135 1074.22C863.135 1074.79 863.23 1075.31 863.419 1075.78C863.611 1076.26 863.891 1076.64 864.259 1076.92C864.627 1077.21 865.076 1077.35 865.606 1077.35ZM871.253 1080.86C871.077 1080.86 870.913 1080.85 870.76 1080.81C870.608 1080.78 870.487 1080.74 870.397 1080.7L870.636 1079.92C870.938 1080.02 871.206 1080.05 871.441 1080.02C871.677 1080 871.886 1079.89 872.068 1079.71C872.25 1079.52 872.413 1079.23 872.555 1078.85L872.834 1078.07L870.025 1070.36H870.984L873.251 1076.83H873.321L875.588 1070.36H876.547L873.316 1079.21C873.18 1079.58 873.013 1079.88 872.814 1080.13C872.615 1080.38 872.384 1080.56 872.123 1080.68C871.864 1080.8 871.574 1080.86 871.253 1080.86ZM889.186 1067.82H890.116V1074.56C890.116 1075.25 889.954 1075.87 889.629 1076.42C889.304 1076.96 888.852 1077.39 888.272 1077.71C887.695 1078.02 887.024 1078.17 886.258 1078.17C885.496 1078.17 884.825 1078.02 884.245 1077.7C883.665 1077.39 883.212 1076.96 882.887 1076.41C882.563 1075.87 882.4 1075.25 882.4 1074.56V1067.82H883.33V1074.5C883.33 1075.04 883.451 1075.52 883.693 1075.94C883.935 1076.36 884.274 1076.69 884.712 1076.94C885.153 1077.18 885.668 1077.3 886.258 1077.3C886.848 1077.3 887.363 1077.18 887.804 1076.94C888.245 1076.69 888.585 1076.36 888.823 1075.94C889.065 1075.52 889.186 1075.04 889.186 1074.5V1067.82ZM893.519 1073.23V1078H892.634V1070.36H893.494V1071.56H893.574C893.753 1071.17 894.031 1070.86 894.409 1070.62C894.79 1070.38 895.261 1070.26 895.821 1070.26C896.335 1070.26 896.785 1070.37 897.173 1070.59C897.564 1070.8 897.868 1071.11 898.083 1071.53C898.302 1071.94 898.411 1072.45 898.411 1073.05V1078H897.526V1073.11C897.526 1072.48 897.351 1071.99 896.999 1071.62C896.651 1071.26 896.184 1071.07 895.597 1071.07C895.196 1071.07 894.84 1071.16 894.528 1071.33C894.217 1071.51 893.97 1071.75 893.788 1072.08C893.609 1072.4 893.519 1072.78 893.519 1073.23ZM901.627 1067.82V1078H900.742V1067.82H901.627ZM903.978 1078V1070.36H904.868V1078H903.978ZM904.43 1069.05C904.248 1069.05 904.092 1068.99 903.963 1068.87C903.834 1068.74 903.769 1068.59 903.769 1068.41C903.769 1068.24 903.834 1068.09 903.963 1067.97C904.092 1067.84 904.248 1067.78 904.43 1067.78C904.613 1067.78 904.769 1067.84 904.898 1067.97C905.027 1068.09 905.092 1068.24 905.092 1068.41C905.092 1068.59 905.027 1068.74 904.898 1068.87C904.769 1068.99 904.613 1069.05 904.43 1069.05ZM907.208 1078V1070.36H908.068V1071.54H908.148C908.3 1071.14 908.554 1070.83 908.909 1070.61C909.267 1070.38 909.696 1070.26 910.196 1070.26C910.723 1070.26 911.156 1070.39 911.494 1070.64C911.835 1070.88 912.09 1071.22 912.259 1071.65H912.324C912.496 1071.23 912.777 1070.89 913.164 1070.64C913.555 1070.39 914.029 1070.26 914.586 1070.26C915.295 1070.26 915.856 1070.49 916.267 1070.94C916.678 1071.38 916.883 1072.03 916.883 1072.88V1078H915.998V1072.88C915.998 1072.28 915.844 1071.83 915.536 1071.53C915.228 1071.23 914.822 1071.07 914.318 1071.07C913.734 1071.07 913.285 1071.25 912.97 1071.61C912.656 1071.97 912.498 1072.42 912.498 1072.97V1078H911.593V1072.8C911.593 1072.29 911.449 1071.87 911.161 1071.55C910.872 1071.23 910.466 1071.07 909.943 1071.07C909.591 1071.07 909.275 1071.16 908.993 1071.33C908.715 1071.51 908.494 1071.75 908.332 1072.05C908.173 1072.36 908.093 1072.71 908.093 1073.11V1078H907.208ZM919.236 1078V1070.36H920.126V1078H919.236ZM919.688 1069.05C919.506 1069.05 919.35 1068.99 919.221 1068.87C919.092 1068.74 919.027 1068.59 919.027 1068.41C919.027 1068.24 919.092 1068.09 919.221 1067.97C919.35 1067.84 919.506 1067.78 919.688 1067.78C919.871 1067.78 920.026 1067.84 920.156 1067.97C920.285 1068.09 920.35 1068.24 920.35 1068.41C920.35 1068.59 920.285 1068.74 920.156 1068.87C920.026 1068.99 919.871 1069.05 919.688 1069.05ZM925.474 1070.36V1071.13H921.83V1070.36H925.474ZM922.968 1068.53H923.858V1076.01C923.858 1076.32 923.913 1076.57 924.022 1076.76C924.132 1076.94 924.274 1077.06 924.45 1077.14C924.626 1077.21 924.813 1077.25 925.012 1077.25C925.128 1077.25 925.227 1077.24 925.31 1077.23C925.393 1077.21 925.466 1077.2 925.529 1077.18L925.718 1077.98C925.631 1078.01 925.525 1078.04 925.399 1078.07C925.273 1078.1 925.118 1078.11 924.932 1078.11C924.607 1078.11 924.294 1078.04 923.992 1077.9C923.694 1077.76 923.449 1077.55 923.257 1077.26C923.064 1076.98 922.968 1076.63 922.968 1076.22V1068.53ZM930.489 1078.16C929.776 1078.16 929.16 1077.99 928.64 1077.66C928.119 1077.33 927.717 1076.86 927.432 1076.27C927.15 1075.68 927.009 1075 927.009 1074.23C927.009 1073.46 927.15 1072.77 927.432 1072.18C927.717 1071.58 928.109 1071.11 928.61 1070.77C929.114 1070.43 929.695 1070.26 930.355 1070.26C930.769 1070.26 931.169 1070.34 931.553 1070.49C931.937 1070.64 932.282 1070.87 932.587 1071.18C932.895 1071.49 933.139 1071.88 933.318 1072.35C933.497 1072.81 933.586 1073.37 933.586 1074.01V1074.45H927.62V1073.66H932.682C932.682 1073.17 932.582 1072.73 932.383 1072.34C932.188 1071.95 931.914 1071.64 931.563 1071.41C931.215 1071.18 930.812 1071.06 930.355 1071.06C929.871 1071.06 929.445 1071.19 929.077 1071.45C928.709 1071.71 928.421 1072.05 928.212 1072.48C928.007 1072.9 927.902 1073.36 927.899 1073.87V1074.34C927.899 1074.94 928.003 1075.47 928.212 1075.93C928.424 1076.38 928.724 1076.73 929.112 1076.98C929.5 1077.22 929.959 1077.35 930.489 1077.35C930.85 1077.35 931.167 1077.29 931.439 1077.18C931.714 1077.07 931.944 1076.92 932.13 1076.73C932.319 1076.54 932.461 1076.32 932.557 1076.1L933.397 1076.37C933.281 1076.69 933.091 1076.99 932.826 1077.26C932.564 1077.53 932.236 1077.75 931.841 1077.92C931.45 1078.08 930.999 1078.16 930.489 1078.16ZM938.286 1078.16C937.659 1078.16 937.111 1077.99 936.64 1077.66C936.17 1077.33 935.802 1076.87 935.536 1076.27C935.275 1075.68 935.144 1074.99 935.144 1074.2C935.144 1073.42 935.275 1072.73 935.536 1072.14C935.802 1071.55 936.171 1071.08 936.645 1070.76C937.119 1070.42 937.671 1070.26 938.301 1070.26C938.765 1070.26 939.151 1070.34 939.459 1070.51C939.767 1070.67 940.014 1070.87 940.2 1071.11C940.385 1071.36 940.53 1071.59 940.632 1071.82H940.712V1067.82H941.602V1078H940.737V1076.58H940.632C940.53 1076.82 940.384 1077.05 940.195 1077.3C940.006 1077.54 939.756 1077.74 939.444 1077.91C939.136 1078.08 938.75 1078.16 938.286 1078.16ZM938.39 1077.35C938.884 1077.35 939.305 1077.21 939.653 1076.95C940.001 1076.67 940.266 1076.3 940.448 1075.83C940.634 1075.35 940.727 1074.8 940.727 1074.19C940.727 1073.58 940.636 1073.04 940.453 1072.57C940.271 1072.1 940.006 1071.73 939.658 1071.47C939.31 1071.2 938.887 1071.06 938.39 1071.06C937.88 1071.06 937.449 1071.2 937.098 1071.48C936.75 1071.76 936.484 1072.13 936.302 1072.6C936.123 1073.07 936.034 1073.6 936.034 1074.19C936.034 1074.78 936.125 1075.32 936.307 1075.79C936.489 1076.27 936.755 1076.65 937.103 1076.93C937.454 1077.21 937.883 1077.35 938.39 1077.35ZM948.244 1078V1067.82H949.174V1072.49H954.951V1067.82H955.88V1078H954.951V1073.32H949.174V1078H948.244ZM958.406 1078V1070.36H959.296V1078H958.406ZM958.858 1069.05C958.676 1069.05 958.52 1068.99 958.391 1068.87C958.262 1068.74 958.197 1068.59 958.197 1068.41C958.197 1068.24 958.262 1068.09 958.391 1067.97C958.52 1067.84 958.676 1067.78 958.858 1067.78C959.041 1067.78 959.196 1067.84 959.326 1067.97C959.455 1068.09 959.519 1068.24 959.519 1068.41C959.519 1068.59 959.455 1068.74 959.326 1068.87C959.196 1068.99 959.041 1069.05 958.858 1069.05ZM966.767 1072.04L965.956 1072.27C965.877 1072.04 965.764 1071.83 965.618 1071.65C965.473 1071.46 965.282 1071.31 965.047 1071.2C964.815 1071.09 964.526 1071.04 964.182 1071.04C963.665 1071.04 963.24 1071.16 962.909 1071.41C962.577 1071.65 962.412 1071.97 962.412 1072.36C962.412 1072.69 962.524 1072.95 962.75 1073.16C962.978 1073.36 963.33 1073.52 963.804 1073.64L964.957 1073.92C965.597 1074.08 966.076 1074.33 966.394 1074.66C966.715 1075 966.876 1075.43 966.876 1075.94C966.876 1076.37 966.757 1076.75 966.518 1077.09C966.28 1077.42 965.946 1077.68 965.519 1077.88C965.095 1078.06 964.602 1078.16 964.042 1078.16C963.297 1078.16 962.682 1077.99 962.198 1077.66C961.714 1077.32 961.404 1076.83 961.268 1076.2L962.118 1075.99C962.228 1076.44 962.441 1076.78 962.76 1077.02C963.081 1077.25 963.504 1077.36 964.027 1077.36C964.614 1077.36 965.083 1077.23 965.434 1076.97C965.786 1076.71 965.961 1076.37 965.961 1075.98C965.961 1075.67 965.859 1075.41 965.653 1075.2C965.448 1074.99 965.136 1074.83 964.718 1074.73L963.471 1074.44C962.808 1074.28 962.317 1074.02 961.999 1073.68C961.681 1073.33 961.522 1072.91 961.522 1072.4C961.522 1071.98 961.636 1071.61 961.865 1071.29C962.093 1070.97 962.408 1070.71 962.809 1070.53C963.21 1070.35 963.668 1070.26 964.182 1070.26C964.881 1070.26 965.439 1070.42 965.857 1070.74C966.278 1071.05 966.581 1071.49 966.767 1072.04ZM971.822 1070.36V1071.13H968.177V1070.36H971.822ZM969.316 1068.53H970.206V1076.01C970.206 1076.32 970.261 1076.57 970.37 1076.76C970.479 1076.94 970.622 1077.06 970.797 1077.14C970.973 1077.21 971.16 1077.25 971.359 1077.25C971.475 1077.25 971.575 1077.24 971.658 1077.23C971.74 1077.21 971.813 1077.2 971.876 1077.18L972.065 1077.98C971.979 1078.01 971.873 1078.04 971.747 1078.07C971.621 1078.1 971.465 1078.11 971.28 1078.11C970.955 1078.11 970.642 1078.04 970.34 1077.9C970.042 1077.76 969.797 1077.55 969.604 1077.26C969.412 1076.98 969.316 1076.63 969.316 1076.22V1068.53ZM976.717 1078.16C976.058 1078.16 975.475 1077.99 974.967 1077.66C974.464 1077.32 974.069 1076.86 973.784 1076.27C973.499 1075.68 973.357 1074.99 973.357 1074.22C973.357 1073.43 973.499 1072.75 973.784 1072.15C974.069 1071.56 974.464 1071.09 974.967 1070.76C975.475 1070.43 976.058 1070.26 976.717 1070.26C977.377 1070.26 977.959 1070.43 978.462 1070.76C978.966 1071.1 979.361 1071.56 979.646 1072.15C979.934 1072.75 980.078 1073.43 980.078 1074.22C980.078 1074.99 979.936 1075.68 979.651 1076.27C979.366 1076.86 978.97 1077.32 978.462 1077.66C977.959 1077.99 977.377 1078.16 976.717 1078.16ZM976.717 1077.35C977.248 1077.35 977.697 1077.21 978.065 1076.92C978.433 1076.64 978.711 1076.26 978.9 1075.78C979.092 1075.31 979.188 1074.79 979.188 1074.22C979.188 1073.65 979.092 1073.12 978.9 1072.65C978.711 1072.17 978.433 1071.79 978.065 1071.5C977.697 1071.21 977.248 1071.06 976.717 1071.06C976.19 1071.06 975.741 1071.21 975.37 1071.5C975.002 1071.79 974.722 1072.17 974.53 1072.65C974.341 1073.12 974.247 1073.65 974.247 1074.22C974.247 1074.79 974.341 1075.31 974.53 1075.78C974.722 1076.26 975.002 1076.64 975.37 1076.92C975.738 1077.21 976.187 1077.35 976.717 1077.35ZM982.021 1078V1070.36H982.881V1071.54H982.946C983.098 1071.15 983.363 1070.84 983.741 1070.61C984.122 1070.37 984.553 1070.25 985.034 1070.25C985.107 1070.25 985.188 1070.25 985.277 1070.25C985.367 1070.26 985.441 1070.26 985.501 1070.26V1071.16C985.461 1071.16 985.392 1071.15 985.292 1071.13C985.193 1071.12 985.085 1071.11 984.969 1071.11C984.571 1071.11 984.217 1071.2 983.905 1071.37C983.597 1071.53 983.353 1071.76 983.174 1072.06C982.995 1072.35 982.906 1072.69 982.906 1073.07V1078H982.021ZM987.86 1080.86C987.684 1080.86 987.52 1080.85 987.368 1080.81C987.215 1080.78 987.094 1080.74 987.005 1080.7L987.244 1079.92C987.545 1080.02 987.814 1080.05 988.049 1080.02C988.284 1080 988.493 1079.89 988.675 1079.71C988.858 1079.52 989.02 1079.23 989.163 1078.85L989.441 1078.07L986.632 1070.36H987.592L989.859 1076.83H989.928L992.195 1070.36H993.155L989.923 1079.21C989.787 1079.58 989.62 1079.88 989.421 1080.13C989.222 1080.38 988.992 1080.56 988.73 1080.68C988.472 1080.8 988.181 1080.86 987.86 1080.86Z" fill="#C9CED6"/>
<path d="M733.282 1080.78H820.91V1081.74H733.282V1080.78Z" fill="#144EE3"/>
</g>
</g>
<defs>
<filter id="filter0_d_1_592" x="-275.059" y="-576.059" width="2278.06" height="2278.06" filterUnits="userSpaceOnUse" color-interpolation-filters="sRGB">
<feFlood flood-opacity="0" result="BackgroundImageFix"/>
<feColorMatrix in="SourceAlpha" type="matrix" values="0 0 0 0 0 0 0 0 0 0 0 0 0 0 0 0 0 0 127 0" result="hardAlpha"/>
<feOffset dy="4"/>
<feGaussianBlur stdDeviation="2"/>
<feComposite in2="hardAlpha" operator="out"/>
<feColorMatrix type="matrix" values="0 0 0 0 0 0 0 0 0 0 0 0 0 0 0 0 0 0 0.25 0"/>
<feBlend mode="normal" in2="BackgroundImageFix" result="effect1_dropShadow_1_592"/>
<feBlend mode="normal" in="SourceGraphic" in2="effect1_dropShadow_1_592" result="shape"/>
</filter>
<filter id="filter1_d_1_592" x="50.3823" y="54.3972" width="114.841" height="44.1533" filterUnits="userSpaceOnUse" color-interpolation-filters="sRGB">
<feFlood flood-opacity="0" result="BackgroundImageFix"/>
<feColorMatrix in="SourceAlpha" type="matrix" values="0 0 0 0 0 0 0 0 0 0 0 0 0 0 0 0 0 0 127 0" result="hardAlpha"/>
<feOffset dy="4"/>
<feGaussianBlur stdDeviation="2"/>
<feComposite in2="hardAlpha" operator="out"/>
<feColorMatrix type="matrix" values="0 0 0 0 0 0 0 0 0 0 0 0 0 0 0 0 0 0 0.25 0"/>
<feBlend mode="normal" in2="BackgroundImageFix" result="effect1_dropShadow_1_592"/>
<feBlend mode="normal" in="SourceGraphic" in2="effect1_dropShadow_1_592" result="shape"/>
</filter>
<filter id="filter2_bf_1_592" x="111" y="984" width="1505" height="232" filterUnits="userSpaceOnUse" color-interpolation-filters="sRGB">
<feFlood flood-opacity="0" result="BackgroundImageFix"/>
<feGaussianBlur in="BackgroundImageFix" stdDeviation="20"/>
<feComposite in2="SourceAlpha" operator="in" result="effect1_backgroundBlur_1_592"/>
<feBlend mode="normal" in="SourceGraphic" in2="effect1_backgroundBlur_1_592" result="shape"/>
<feGaussianBlur stdDeviation="21" result="effect2_foregroundBlur_1_592"/>
</filter>
<linearGradient id="paint0_linear_1_592" x1="89901.6" y1="-340.398" x2="89901.6" y2="179534" gradientUnits="userSpaceOnUse">
<stop stop-color="#1F89DB"/>
<stop offset="0.28125" stop-color="#F42A8B"/>
</linearGradient>
<linearGradient id="paint1_linear_1_592" x1="81889.7" y1="-25110.8" x2="132089" y2="139085" gradientUnits="userSpaceOnUse">
<stop stop-color="#1F89DB"/>
<stop offset="0.28125" stop-color="#F42A8B"/>
</linearGradient>
<linearGradient id="paint2_linear_1_592" x1="67511.8" y1="-45381.8" x2="158952" y2="90183.9" gradientUnits="userSpaceOnUse">
<stop stop-color="#1F89DB"/>
<stop offset="0.28125" stop-color="#F42A8B"/>
</linearGradient>
<linearGradient id="paint3_linear_1_592" x1="48652.6" y1="-59689.3" x2="169379" y2="38072.9" gradientUnits="userSpaceOnUse">
<stop stop-color="#1F89DB"/>
<stop offset="0.28125" stop-color="#F42A8B"/>
</linearGradient>
<linearGradient id="paint4_linear_1_592" x1="26283.7" y1="-67715.1" x2="163678" y2="-14974.2" gradientUnits="userSpaceOnUse">
<stop stop-color="#1F89DB"/>
<stop offset="0.28125" stop-color="#F42A8B"/>
</linearGradient>
<linearGradient id="paint5_linear_1_592" x1="4970.06" y1="-68123.7" x2="143625" y2="-58428" gradientUnits="userSpaceOnUse">
<stop stop-color="#1F89DB"/>
<stop offset="0.28125" stop-color="#F42A8B"/>
</linearGradient>
<linearGradient id="paint6_linear_1_592" x1="-14340" y1="-62388.8" x2="113125" y2="-91816.4" gradientUnits="userSpaceOnUse">
<stop stop-color="#1F89DB"/>
<stop offset="0.28125" stop-color="#F42A8B"/>
</linearGradient>
<linearGradient id="paint7_linear_1_592" x1="-30020.8" y1="-51708.6" x2="76189.7" y2="-113029" gradientUnits="userSpaceOnUse">
<stop stop-color="#1F89DB"/>
<stop offset="0.28125" stop-color="#F42A8B"/>
</linearGradient>
<linearGradient id="paint8_linear_1_592" x1="-40965.1" y1="-37664.7" x2="37100" y2="-121379" gradientUnits="userSpaceOnUse">
<stop stop-color="#1F89DB"/>
<stop offset="0.28125" stop-color="#F42A8B"/>
</linearGradient>
<linearGradient id="paint9_linear_1_592" x1="-46657.4" y1="-22027.4" x2="-63.2707" y2="-117559" gradientUnits="userSpaceOnUse">
<stop stop-color="#1F89DB"/>
<stop offset="0.28125" stop-color="#F42A8B"/>
</linearGradient>
<linearGradient id="paint10_linear_1_592" x1="-47180.8" y1="-6553.89" x2="-31832.5" y2="-103459" gradientUnits="userSpaceOnUse">
<stop stop-color="#1F89DB"/>
<stop offset="0.28125" stop-color="#F42A8B"/>
</linearGradient>
<linearGradient id="paint11_linear_1_592" x1="-43036.4" y1="7967.39" x2="-57105.6" y2="-80862.3" gradientUnits="userSpaceOnUse">
<stop stop-color="#1F89DB"/>
<stop offset="0.28125" stop-color="#F42A8B"/>
</linearGradient>
<linearGradient id="paint12_linear_1_592" x1="-35332.5" y1="18668" x2="-71174.1" y2="-54818.2" gradientUnits="userSpaceOnUse">
<stop stop-color="#1F89DB"/>
<stop offset="0.28125" stop-color="#F42A8B"/>
</linearGradient>
<linearGradient id="paint13_linear_1_592" x1="-25524.3" y1="25669.5" x2="-75709" y2="-28147" gradientUnits="userSpaceOnUse">
<stop stop-color="#1F89DB"/>
<stop offset="0.28125" stop-color="#F42A8B"/>
</linearGradient>
<linearGradient id="paint14_linear_1_592" x1="-15041.5" y1="28762.1" x2="-71687" y2="-3942.29" gradientUnits="userSpaceOnUse">
<stop stop-color="#1F89DB"/>
<stop offset="0.28125" stop-color="#F42A8B"/>
</linearGradient>
<linearGradient id="paint15_linear_1_592" x1="-5230.1" y1="28227.4" x2="-60995.8" y2="15352.8" gradientUnits="userSpaceOnUse">
<stop stop-color="#1F89DB"/>
<stop offset="0.28125" stop-color="#F42A8B"/>
</linearGradient>
<linearGradient id="paint16_linear_1_592" x1="2802.55" y1="24765.7" x2="-46134.5" y2="28187.7" gradientUnits="userSpaceOnUse">
<stop stop-color="#1F89DB"/>
<stop offset="0.28125" stop-color="#F42A8B"/>
</linearGradient>
<linearGradient id="paint17_linear_1_592" x1="8306.66" y1="19377.5" x2="-29858.5" y2="34027.7" gradientUnits="userSpaceOnUse">
<stop stop-color="#1F89DB"/>
<stop offset="0.28125" stop-color="#F42A8B"/>
</linearGradient>
<linearGradient id="paint18_linear_1_592" x1="11178.9" y1="13037" x2="-14237.2" y2="33618.5" gradientUnits="userSpaceOnUse">
<stop stop-color="#1F89DB"/>
<stop offset="0.28125" stop-color="#F42A8B"/>
</linearGradient>
<linearGradient id="paint19_linear_1_592" x1="10998.3" y1="7246.73" x2="-2717.73" y2="27581.6" gradientUnits="userSpaceOnUse">
<stop stop-color="#1F89DB"/>
<stop offset="0.28125" stop-color="#F42A8B"/>
</linearGradient>
<linearGradient id="paint20_linear_1_592" x1="8628.52" y1="2847.33" x2="3847.61" y2="18485" gradientUnits="userSpaceOnUse">
<stop stop-color="#1F89DB"/>
<stop offset="0.28125" stop-color="#F42A8B"/>
</linearGradient>
<linearGradient id="paint21_linear_1_592" x1="4911.13" y1="518.09" x2="4911.13" y2="8694.18" gradientUnits="userSpaceOnUse">
<stop stop-color="#1F89DB"/>
<stop offset="0.28125" stop-color="#F42A8B"/>
</linearGradient>
<radialGradient id="paint22_radial_1_592" cx="0" cy="0" r="1" gradientUnits="userSpaceOnUse" gradientTransform="translate(58.1214 83.3458) rotate(-4.80508) scale(105.083 5704.61)">
<stop stop-color="#EB568E"/>
<stop offset="1" stop-color="#144EE3"/>
</radialGradient>
<linearGradient id="paint23_linear_1_592" x1="863" y1="1026" x2="863" y2="1100.56" gradientUnits="userSpaceOnUse">
<stop offset="0.3125" stop-color="#0B101B" stop-opacity="0"/>
<stop offset="1" stop-color="#0B101B"/>
</linearGradient>
<clipPath id="clip0_1_592">
<rect width="1728" height="1117" fill="white"/>
</clipPath>
</defs>
</svg>
